<svg width="83" height="74" viewBox="0 0 83 74" fill="none" xmlns="http://www.w3.org/2000/svg">
<path d="M52.2378 62.9488C52.6554 63.1115 53.6731 63.0904 53.6731 63.0904C53.6731 63.0904 53.4543 62.4947 53.436 62.4589C53.2117 62.0423 52.5059 61.3539 51.9314 61.4222C51.8366 61.4366 51.7463 61.4686 51.6663 61.5161C51.5862 61.5636 51.5182 61.6255 51.4667 61.6979C51.4151 61.7703 51.3811 61.8515 51.3669 61.9363C51.3527 62.0212 51.3586 62.1077 51.3842 62.1904C51.4772 62.5452 51.8858 62.8105 52.2378 62.9488Z" fill="#EEEEEE"/>
<path d="M52.592 65.5804C53.0243 65.6357 53.9326 65.4013 54.0055 65.3818C54.1532 65.8458 54.3361 66.3004 54.5527 66.7424C54.6767 67.0012 54.8117 67.2567 54.9521 67.5122C54.8682 67.4048 54.7934 67.3088 54.7807 67.2957C54.4414 66.9458 53.5568 66.4495 53.0224 66.6448C52.935 66.6808 52.857 66.7328 52.7935 66.7974C52.73 66.8621 52.6825 66.9379 52.6539 67.02C52.6254 67.1021 52.6165 67.1886 52.6278 67.274C52.6392 67.3593 52.6705 67.4416 52.7197 67.5155C52.9167 67.841 53.389 67.9939 53.7721 68.0428C54.1551 68.0916 54.9393 67.9077 55.1436 67.8556C55.1983 67.9533 55.2512 68.0509 55.3077 68.1486C55.5704 68.6156 55.8348 69.0811 56.0792 69.5449C56.165 69.7077 56.2434 69.8704 56.3218 70.0332C56.2489 69.9355 56.185 69.8558 56.1741 69.8444C55.8348 69.4945 54.9503 68.9965 54.4159 69.1934C54.3283 69.2291 54.2502 69.2808 54.1865 69.3453C54.1229 69.4097 54.0751 69.4854 54.0464 69.5673C54.0177 69.6493 54.0086 69.7358 54.0198 69.8211C54.031 69.9064 54.0621 69.9886 54.1113 70.0625C54.3101 70.388 54.7807 70.5426 55.1637 70.5914C55.5467 70.6402 56.258 70.4726 56.5006 70.4124C56.5753 70.5833 56.6501 70.7525 56.7158 70.9202C56.7559 71.0357 56.8051 71.1431 56.838 71.2603C56.8708 71.3775 56.9109 71.4914 56.9456 71.6054C57.0058 71.8267 57.0678 72.0545 57.128 72.271C57.1644 72.4224 57.1973 72.5672 57.2301 72.712C57.1462 72.5493 56.9766 72.2238 56.9583 72.2059C56.6829 71.8153 55.8914 71.2034 55.3296 71.3303C55.2379 71.3543 55.1528 71.395 55.0796 71.4499C55.0065 71.5048 54.9469 71.5726 54.9047 71.6491C54.8626 71.7256 54.8387 71.8092 54.8346 71.8944C54.8305 71.9796 54.8463 72.0646 54.881 72.1441C55.0214 72.4875 55.4628 72.7072 55.8312 72.8081C56.2397 72.9187 57.1407 72.8178 57.2538 72.8081C57.3085 73.0473 57.3578 73.2817 57.4015 73.5046C57.4325 73.6674 57.4635 73.8301 57.4909 73.9782H57.8557C57.821 73.8155 57.7827 73.6332 57.7426 73.4477C57.6879 73.2035 57.6259 72.9431 57.5602 72.6762C57.8317 72.5819 58.0966 72.4732 58.3536 72.3507C58.6509 72.6372 59.4114 72.9724 59.5099 73.0164C59.406 73.2426 59.302 73.4623 59.2017 73.6674C59.1488 73.7764 59.0959 73.8806 59.0448 73.9831H59.4279C59.457 73.918 59.488 73.8545 59.519 73.7862C59.6248 73.5567 59.7324 73.3093 59.8419 73.0538C59.9513 73.0733 60.8432 73.2345 61.259 73.1515C61.6365 73.075 62.0943 72.8846 62.2621 72.5525C62.3049 72.4755 62.3291 72.3912 62.3331 72.3052C62.337 72.2192 62.3207 72.1335 62.2851 72.0535C62.2495 71.9736 62.1954 71.9012 62.1264 71.8411C62.0574 71.781 61.975 71.7345 61.8846 71.7046C61.3374 71.5419 60.4948 72.0985 60.1866 72.4696C60.1683 72.4923 60.0042 72.7495 59.9002 72.9139C59.944 72.8081 59.9878 72.7072 60.0316 72.5997C60.1191 72.3865 60.1993 72.1701 60.2869 71.939C60.3258 71.8305 60.3641 71.7166 60.4018 71.5972C60.4419 71.4833 60.4693 71.358 60.5039 71.2375C60.5805 70.9576 60.6407 70.6712 60.6863 70.3798C60.8961 70.4482 61.6438 70.6809 62.0323 70.6565C62.4208 70.6321 62.9023 70.5052 63.1266 70.1992C63.1822 70.129 63.2205 70.0491 63.239 69.9648C63.2575 69.8804 63.2559 69.7935 63.2342 69.7098C63.2125 69.6261 63.1713 69.5474 63.1131 69.4789C63.055 69.4103 62.9813 69.3535 62.8968 69.3122C62.3807 69.0746 61.4578 69.5124 61.0894 69.8379C61.0675 69.8574 60.8322 70.1178 60.7082 70.2643C60.7392 70.0885 60.7702 69.9144 60.7939 69.737C60.8669 69.2227 60.9198 68.7019 60.9763 68.1827C60.9927 68.02 61.0128 67.8572 61.031 67.7059C61.1058 67.7303 61.9886 68.0232 62.4226 67.9956C62.8075 67.9728 63.2926 67.8458 63.5169 67.5399C63.5725 67.4695 63.6108 67.3895 63.6294 67.305C63.6479 67.2206 63.6463 67.1336 63.6246 67.0497C63.6029 66.9659 63.5617 66.887 63.5035 66.8184C63.4454 66.7497 63.3716 66.6928 63.2871 66.6513C62.771 66.4136 61.8481 66.8514 61.4797 67.1769C61.4523 67.2014 61.1149 67.5773 61.0365 67.6766C61.0784 67.3267 61.1222 66.9784 61.1824 66.6366C61.261 66.1751 61.3725 65.7184 61.5162 65.2695C61.5508 65.2825 62.4719 65.595 62.9151 65.5641C63.3017 65.5397 63.7869 65.4127 64.0094 65.1068C64.0647 65.0363 64.1027 64.9563 64.1211 64.8719C64.1395 64.7875 64.1379 64.7006 64.1162 64.6168C64.0945 64.533 64.0534 64.4542 63.9954 64.3856C63.9374 64.3169 63.8639 64.2598 63.7796 64.2182C63.2634 63.9822 62.3387 64.4183 61.9721 64.7455C61.943 64.7699 61.5818 65.1735 61.5216 65.2516C61.5308 65.2256 61.5362 65.1979 61.5454 65.1719C61.7037 64.7225 61.907 64.2868 62.1527 63.8699C62.284 63.6404 62.4245 63.4272 62.5667 63.2189C62.7309 63.2921 63.4878 63.6192 63.8908 63.6339C64.2939 63.6485 64.7754 63.5688 65.0344 63.2872C65.0981 63.2227 65.1458 63.1469 65.1744 63.0648C65.203 62.9827 65.212 62.8962 65.2006 62.8108C65.1892 62.7254 65.1579 62.6432 65.1085 62.5693C65.0591 62.4955 64.9928 62.4318 64.914 62.3823C64.4307 62.0959 63.4549 62.4393 63.0537 62.7274C63.0318 62.7436 62.8275 62.9243 62.6889 63.0529C62.7546 62.9601 62.8202 62.8641 62.8841 62.7778C63.1266 62.4523 63.3729 62.1659 63.5917 61.9153C63.7176 61.7737 63.8343 61.6483 63.9456 61.5312C64.148 61.5312 64.9687 61.5051 65.328 61.3554C65.6873 61.2057 66.0795 60.9339 66.1634 60.5775C66.1862 60.4939 66.1892 60.407 66.1721 60.3224C66.155 60.2377 66.1181 60.1572 66.064 60.0861C66.0099 60.0149 65.9396 59.9547 65.8578 59.9092C65.7759 59.8638 65.6843 59.8342 65.5889 59.8223C65.0125 59.767 64.3267 60.4733 64.117 60.8948C64.0988 60.9322 63.8872 61.5312 63.8981 61.5312H63.9091C63.8015 61.6418 63.6847 61.7606 63.5625 61.8941C63.3364 62.1415 63.0847 62.423 62.833 62.7453C62.5574 63.0904 62.3047 63.4496 62.0761 63.821C61.8183 64.2372 61.6022 64.6729 61.4304 65.123V65.1409C61.4304 64.988 61.4305 64.5648 61.4213 64.5323C61.3538 64.0733 60.9234 63.2221 60.3525 63.1294C60.2573 63.116 60.16 63.1207 60.067 63.1432C59.974 63.1656 59.8873 63.2053 59.8126 63.2597C59.7379 63.314 59.6769 63.3818 59.6335 63.4587C59.5902 63.5355 59.5655 63.6196 59.561 63.7055C59.5282 64.0684 59.8236 64.433 60.1081 64.6641C60.4346 64.9229 61.3374 65.1735 61.4104 65.193C61.2474 65.6535 61.1195 66.1233 61.0274 66.5992C60.9727 66.8775 60.9271 67.1574 60.8833 67.439C60.8833 67.3071 60.8833 67.19 60.8833 67.1737C60.8176 66.7164 60.3872 65.8717 59.8163 65.7708C59.7211 65.7574 59.6238 65.7621 59.5308 65.7846C59.4377 65.807 59.351 65.8467 59.2764 65.9011C59.2017 65.9555 59.1407 66.0233 59.0973 66.1001C59.054 66.1769 59.0292 66.261 59.0248 66.3469C58.9919 66.7115 59.2874 67.076 59.5719 67.3055C59.8565 67.535 60.6298 67.7677 60.834 67.8247C60.8176 67.9337 60.803 68.0411 60.7885 68.1502C60.7173 68.671 60.6517 69.1885 60.5678 69.6963C60.5386 69.8753 60.5021 70.0495 60.4675 70.2252C60.4675 70.1081 60.4675 70.0104 60.4675 69.9958C60.4018 69.5368 59.9714 68.6856 59.4005 68.5929C59.3053 68.5795 59.208 68.5842 59.1149 68.6067C59.0219 68.6291 58.9352 68.6688 58.8605 68.7232C58.7858 68.7775 58.7248 68.8453 58.6815 68.9222C58.6381 68.999 58.6134 69.0831 58.6089 69.169C58.5743 69.5319 58.8716 69.8965 59.1561 70.1276C59.4406 70.3587 60.1392 70.5654 60.3817 70.6354C60.338 70.8144 60.296 70.9934 60.2468 71.1643C60.2085 71.2799 60.1829 71.3938 60.1373 71.5093C60.0917 71.6249 60.0553 71.7372 60.0151 71.8495C59.9276 72.0627 59.8327 72.284 59.7488 72.4907C59.6868 72.6356 59.6248 72.7706 59.5665 72.909C59.5975 72.7316 59.6504 72.3817 59.6522 72.3524C59.6428 71.9453 59.5172 71.547 59.2874 71.1952C59.2883 71.15 59.2846 71.1048 59.2765 71.0601C59.2648 70.9748 59.2329 70.8925 59.1831 70.8189C59.1333 70.7452 59.0666 70.6818 58.9873 70.6328C58.9081 70.5838 58.8182 70.5503 58.7234 70.5344C58.6287 70.5186 58.5312 70.5208 58.4375 70.541C57.8776 70.6744 57.5256 71.5516 57.4946 72.0057C57.4946 72.0318 57.5128 72.3312 57.5292 72.5167C57.5019 72.4077 57.4763 72.3019 57.4453 72.1912C57.3869 71.9699 57.3195 71.7502 57.2502 71.5142C57.2119 71.4003 57.1736 71.2864 57.1334 71.1708C57.0933 71.0553 57.0441 70.9397 56.9985 70.8225C56.8872 70.5507 56.7614 70.2822 56.6337 70.0088C56.8507 69.9616 57.6186 69.7874 57.9268 69.5759C58.235 69.3643 58.5597 69.0225 58.556 68.6563C58.5587 68.5703 58.541 68.4848 58.5041 68.4053C58.4671 68.3258 58.4118 68.2542 58.3418 68.195C58.2717 68.1359 58.1885 68.0906 58.0975 68.0621C58.0065 68.0337 57.9098 68.0226 57.8137 68.0297C57.2374 68.0851 56.7377 68.9053 56.6319 69.3578C56.6319 69.3854 56.5917 69.7191 56.5772 69.9014C56.4951 69.7386 56.413 69.5759 56.3236 69.4131C56.0665 68.9493 55.7892 68.4871 55.5157 68.0265C55.4318 67.8849 55.3497 67.7433 55.2676 67.6017C55.3442 67.5854 56.2616 67.395 56.6082 67.159C56.9146 66.9491 57.2392 66.6057 57.2374 66.2395C57.24 66.1535 57.2223 66.068 57.1854 65.9885C57.1485 65.909 57.0932 65.8373 57.0231 65.7782C56.9531 65.7191 56.8699 65.6738 56.7789 65.6453C56.6879 65.6168 56.5912 65.6058 56.4951 65.6129C55.9187 65.6683 55.419 66.4885 55.3132 66.941C55.3132 66.9751 55.2567 67.4536 55.2512 67.5757C55.0688 67.2632 54.8864 66.9507 54.7314 66.6366C54.5111 66.214 54.3217 65.7791 54.1642 65.3346C54.2007 65.3346 55.16 65.1328 55.5138 64.8903C55.8203 64.6804 56.1467 64.337 56.1431 63.9724C56.1454 63.8864 56.1275 63.8009 56.0905 63.7215C56.0535 63.642 55.9982 63.5704 55.9283 63.5112C55.8583 63.452 55.7752 63.4065 55.6844 63.3778C55.5935 63.349 55.4969 63.3376 55.4008 63.3442C54.8244 63.4012 54.3247 64.2198 54.2207 64.6722C54.2116 64.708 54.1605 65.2239 54.1587 65.3232C54.1587 65.2972 54.1368 65.2711 54.1277 65.2451C53.9839 64.7949 53.8857 64.3341 53.8341 63.8682C53.8012 63.6111 53.7866 63.3637 53.7794 63.1229C53.9617 63.1033 54.7952 63.004 55.1418 62.8169C55.4883 62.6297 55.8385 62.3286 55.8713 61.9657C55.8844 61.8805 55.8773 61.7937 55.8503 61.7111C55.8234 61.6285 55.7773 61.5519 55.7151 61.4862C55.6528 61.4205 55.5758 61.3672 55.489 61.3298C55.4021 61.2924 55.3074 61.2718 55.2111 61.2691C54.6311 61.2691 54.0329 62.0341 53.8724 62.4735C53.8724 62.4979 53.8067 62.7502 53.7666 62.9341C53.7666 62.825 53.7666 62.7127 53.7666 62.6086C53.7666 62.2163 53.7958 61.8583 53.8231 61.5409C53.8395 61.3603 53.8596 61.1975 53.8797 61.0527C54.0475 60.9501 54.7186 60.527 54.9247 60.2243C55.1308 59.9216 55.2895 59.5049 55.14 59.1648C55.1075 59.0839 55.0564 59.0099 54.9899 58.9478C54.9234 58.8856 54.8431 58.8366 54.754 58.8039C54.6649 58.7712 54.5692 58.7556 54.4729 58.7581C54.3766 58.7605 54.282 58.781 54.1952 58.8181C53.6809 59.0557 53.5441 59.9818 53.6298 60.4456C53.6298 60.4847 53.8322 61.0966 53.8414 61.0836H53.8505C53.8286 61.2284 53.8049 61.3863 53.7848 61.5572C53.7502 61.8827 53.7137 62.2342 53.7027 62.6265C53.6868 63.0499 53.6984 63.4737 53.7374 63.8959C53.7774 64.3686 53.8654 64.837 54 65.2956V65.3118C53.9088 65.1849 53.6353 64.835 53.617 64.8089C53.2778 64.4607 52.3932 63.9626 51.8588 64.1579C51.7712 64.1938 51.693 64.2457 51.6294 64.3103C51.5657 64.3749 51.518 64.4507 51.4892 64.5328C51.4605 64.6149 51.4515 64.7014 51.4627 64.7869C51.4739 64.8723 51.5051 64.9547 51.5542 65.0287C51.7366 65.3721 52.209 65.5299 52.592 65.5804Z" fill="#EEEEEE"/>
<path d="M62.5394 63.1472C62.5394 63.1472 62.7218 62.5434 62.7218 62.5043C62.7929 62.047 62.6287 61.1242 62.1071 60.8996C62.0192 60.8643 61.924 60.8459 61.8276 60.8457C61.7312 60.8455 61.6358 60.8634 61.5477 60.8982C61.4596 60.9331 61.3807 60.9841 61.3162 61.048C61.2517 61.1119 61.203 61.1872 61.1733 61.269C61.0329 61.6124 61.2098 62.0323 61.4213 62.3237C61.6767 62.6638 62.5394 63.1472 62.5394 63.1472Z" fill="#EEEEEE"/>
<path d="M57.3684 4.69336H47.9774C47.7355 4.69336 47.5036 4.77909 47.3325 4.9317C47.1615 5.08431 47.0654 5.29129 47.0654 5.50711V9.1413C47.0654 9.35712 47.1615 9.5641 47.3325 9.7167C47.5036 9.86931 47.7355 9.95505 47.9774 9.95505H48.5646L47.8004 11.7453L49.9271 9.95505H57.3684C57.6103 9.95505 57.8422 9.86931 58.0133 9.7167C58.1843 9.5641 58.2804 9.35712 58.2804 9.1413V5.5006C58.2784 5.28591 58.1815 5.0806 58.0107 4.92939C57.8399 4.77819 57.609 4.69335 57.3684 4.69336Z" fill="white" stroke="#263238" stroke-width="0.2" stroke-linecap="round" stroke-linejoin="round"/>
<path d="M50.7045 7.71089C50.907 7.71089 51.0711 7.56443 51.0711 7.38377C51.0711 7.2031 50.907 7.05664 50.7045 7.05664C50.502 7.05664 50.3379 7.2031 50.3379 7.38377C50.3379 7.56443 50.502 7.71089 50.7045 7.71089Z" fill="#263238"/>
<path d="M52.5355 7.71089C52.738 7.71089 52.9021 7.56443 52.9021 7.38377C52.9021 7.2031 52.738 7.05664 52.5355 7.05664C52.3331 7.05664 52.1689 7.2031 52.1689 7.38377C52.1689 7.56443 52.3331 7.71089 52.5355 7.71089Z" fill="#263238"/>
<path d="M54.3666 7.71089C54.5691 7.71089 54.7332 7.56443 54.7332 7.38377C54.7332 7.2031 54.5691 7.05664 54.3666 7.05664C54.1641 7.05664 54 7.2031 54 7.38377C54 7.56443 54.1641 7.71089 54.3666 7.71089Z" fill="#263238"/>
<path d="M34.0741 14.3375L32.1682 13.3773V11.4861C32.1682 11.2703 32.0721 11.0633 31.9011 10.9107C31.73 10.7581 31.4981 10.6724 31.2562 10.6724H20.1307C19.8888 10.6724 19.6569 10.7581 19.4858 10.9107C19.3148 11.0633 19.2188 11.2703 19.2188 11.4861V15.6834C19.2187 15.8992 19.3148 16.1062 19.4858 16.2588C19.6569 16.4114 19.8888 16.4972 20.1307 16.4972H31.2562C31.4981 16.4972 31.73 16.4114 31.9011 16.2588C32.0721 16.1062 32.1682 15.8992 32.1682 15.6834V14.4856L34.0741 14.3375Z" fill="white" stroke="white" stroke-width="0.2" stroke-linecap="round" stroke-linejoin="round"/>
<path d="M21.2156 12.6904L21.4418 13.3105H22.1695L21.5804 13.6913L21.8047 14.3098L21.2156 13.929L20.6265 14.3098L20.8508 13.6913L20.2617 13.3105H20.9913L21.2156 12.6904Z" fill="#1B1623"/>
<path d="M23.4851 12.6904L23.7113 13.3105H24.439L23.8499 13.6913L24.0761 14.3098L23.4851 13.929L22.896 14.3098L23.1222 13.6913L22.5312 13.3105H23.2608L23.4851 12.6904Z" fill="#1B1623"/>
<path d="M25.7555 12.6904L25.9798 13.3105H26.7094L26.1185 13.6913L26.3446 14.3098L25.7555 13.929L25.1646 14.3098L25.3907 13.6913L24.7998 13.3105H25.5293L25.7555 12.6904Z" fill="#1B1623"/>
<path d="M28.0242 12.6904L28.2485 13.3105H28.9781L28.389 13.6913L28.6133 14.3098L28.0242 13.929L27.4333 14.3098L27.6594 13.6913L27.0703 13.3105H27.798L28.0242 12.6904Z" fill="#1B1623"/>
<path d="M30.2927 12.6904L30.5189 13.3105H31.2466L30.6575 13.6913L30.8819 14.3098L30.2927 13.929L29.7036 14.3098L29.928 13.6913L29.3389 13.3105H30.0684L30.2927 12.6904Z" fill="#1B1623"/>
<path d="M14.8787 35.6929H25.0814C25.2235 35.6971 25.3632 35.7262 25.4926 35.7786C25.622 35.8311 25.7386 35.9058 25.8357 35.9984C25.9327 36.0911 26.0084 36.1999 26.0583 36.3186C26.1082 36.4374 26.1313 36.5638 26.1265 36.6905V37.418L28.8477 36.4106L26.1265 39.3027V46.3351C26.1358 46.5909 26.031 46.8397 25.8351 47.0267C25.6392 47.2137 25.3681 47.3238 25.0814 47.3327H14.8787C14.592 47.3238 14.3209 47.2137 14.125 47.0267C13.9291 46.8397 13.8243 46.5909 13.8336 46.3351V36.6905C13.8288 36.5638 13.8519 36.4374 13.9018 36.3186C13.9517 36.1999 14.0274 36.0911 14.1244 35.9984C14.2215 35.9058 14.3381 35.8311 14.4675 35.7786C14.5969 35.7262 14.7367 35.6971 14.8787 35.6929Z" fill="white" stroke="#263238" stroke-width="0.2" stroke-linecap="round" stroke-linejoin="round"/>
<path d="M19.238 42.9124C21.1045 42.9124 22.6176 41.5622 22.6176 39.8966C22.6176 38.2311 21.1045 36.8809 19.238 36.8809C17.3715 36.8809 15.8584 38.2311 15.8584 39.8966C15.8584 41.5622 17.3715 42.9124 19.238 42.9124Z" fill="#263238" stroke="#263238" stroke-width="0.2" stroke-linecap="round" stroke-linejoin="round"/>
<path d="M19.1797 42.1688V41.7294C19.0358 41.7321 18.893 41.7072 18.7608 41.6564C18.6287 41.6055 18.5103 41.53 18.4137 41.4348C18.2199 41.1906 18.123 40.8956 18.1383 40.5966L18.897 40.4957C18.8971 40.6204 18.9118 40.7448 18.9408 40.8668C18.9569 40.9432 18.9975 41.0139 19.0575 41.0702C19.1072 41.111 19.1725 41.1331 19.2399 41.1321C19.2761 41.1361 19.3129 41.1304 19.3454 41.1156C19.3779 41.1008 19.4047 41.0776 19.4223 41.0491C19.4506 40.9934 19.465 40.9328 19.4642 40.8717C19.4695 40.7394 19.4294 40.6088 19.3493 40.4974C19.2601 40.3812 19.154 40.2761 19.0338 40.1849L18.6818 39.9147C18.5859 39.8382 18.4957 39.7561 18.4119 39.669C18.3288 39.5824 18.2628 39.4839 18.2167 39.3777C18.163 39.2509 18.1376 39.116 18.1419 38.9805C18.1342 38.8601 18.1542 38.7394 18.2006 38.6261C18.247 38.5127 18.3189 38.4091 18.4119 38.3214C18.6099 38.1549 18.8694 38.0588 19.1414 38.0512V37.6313H19.3949V38.0464C19.5579 38.0485 19.7172 38.0895 19.8564 38.1652C19.9664 38.229 20.0562 38.317 20.1172 38.4207C20.1742 38.5235 20.2141 38.6331 20.2357 38.7462C20.2569 38.8504 20.2691 38.956 20.2722 39.0619L19.5044 39.1465C19.5044 39.038 19.4971 38.9453 19.4825 38.8682C19.4761 38.8029 19.4523 38.7399 19.4132 38.6843C19.3935 38.6621 19.3677 38.6449 19.3382 38.6344C19.3088 38.6238 19.2768 38.6203 19.2454 38.6241C19.2083 38.6227 19.1714 38.6306 19.1392 38.647C19.1069 38.6634 19.0805 38.6877 19.063 38.7169C19.0248 38.7728 19.004 38.8369 19.0028 38.9024C18.9958 39.0263 19.0392 39.1482 19.125 39.2458C19.206 39.3336 19.2944 39.4158 19.3895 39.4916L19.7269 39.752C19.8381 39.8427 19.9418 39.9406 20.0369 40.0449C20.1321 40.1487 20.2084 40.2651 20.2631 40.39C20.3218 40.5298 20.3503 40.6784 20.347 40.8277C20.3489 40.9767 20.3114 41.1239 20.2376 41.2574C20.1667 41.3858 20.0591 41.4953 19.9257 41.5748C19.7797 41.6584 19.6133 41.7092 19.4405 41.7229V42.1655L19.1797 42.1688Z" fill="white"/>
<path d="M25.3243 39.9766L23.0463 40.6731L23.6737 41.1614L20.4819 44.4164L18.5596 43.4708C18.4975 43.4405 18.4268 43.4269 18.3562 43.4318C18.2856 43.4368 18.2181 43.4599 18.162 43.4985L15.1453 45.5556C15.0684 45.6081 15.018 45.6856 15.0052 45.7712C14.9923 45.8568 15.0182 45.9435 15.0769 46.0121C15.1357 46.0808 15.2226 46.1257 15.3186 46.1372C15.4145 46.1486 15.5116 46.1256 15.5885 46.0732L18.421 44.1397L20.3908 45.108C20.4635 45.144 20.5479 45.1566 20.6298 45.1439C20.7117 45.1311 20.7863 45.0938 20.8412 45.0381L24.2282 41.5927L24.8556 42.0809L25.3243 39.9766Z" fill="#92E3A9" stroke="#263238" stroke-width="0.2" stroke-linecap="round" stroke-linejoin="round"/>
<path d="M34.6055 42.4869C34.6055 42.4869 35.3988 55.9951 35.7965 58.7325C36.1941 61.47 36.9874 65.4639 36.9874 65.4639C36.9874 65.4639 36.4202 65.8186 36.3071 66.1734C36.1941 66.5282 36.3637 67.8432 36.3637 67.8432L40.5038 68.0955C40.5038 68.0955 40.6735 67.1857 40.6735 65.1091V62.0168C40.6735 61.6132 41.3556 44.3032 41.3556 44.3032L41.8644 62.0689C41.8644 62.0689 41.6948 67.5845 41.9793 67.6854C42.2594 67.8145 42.525 67.9671 42.7727 68.1411L46.4022 68.0402C46.5559 67.4416 46.6511 66.8323 46.6867 66.219C46.6867 65.5094 46.176 64.144 46.2326 63.3839C46.2891 62.6239 47.7646 56.4508 47.7646 55.388V38.8413H34.7222L34.6055 42.4869Z" fill="#263238" stroke="#263238" stroke-width="0.2" stroke-linecap="round" stroke-linejoin="round"/>
<path d="M40.1058 67.8429C40.1058 67.8429 38.5756 66.6792 37.8953 66.7801C37.215 66.881 36.5894 67.2358 36.5329 67.3872C36.4763 67.5385 36.0787 67.8429 35.9656 68.1456C35.8526 68.4483 34.0378 69.9684 33.6402 70.3736C33.2426 70.7789 32.9599 70.8293 33.301 71.0816C33.5121 71.2355 33.7628 71.3401 34.0305 71.3859H40.5034C40.5034 71.3859 40.7314 70.9302 40.673 70.0188C40.6147 69.1074 40.5034 68.0951 40.5034 68.0951L40.1058 67.8429Z" fill="white" stroke="#263238" stroke-width="0.2" stroke-linecap="round" stroke-linejoin="round"/>
<path d="M33.1504 70.8784C33.1504 70.937 33.1905 70.9972 33.3018 71.0802C33.5129 71.2342 33.7636 71.3388 34.0313 71.3846H40.5042C40.5732 71.2216 40.6192 71.0516 40.641 70.8784H33.1504Z" fill="white" stroke="#263238" stroke-width="0.2" stroke-linecap="round" stroke-linejoin="round"/>
<path d="M42.7962 67.8429C42.7962 67.8429 44.2389 66.6792 44.8809 66.7801C45.5229 66.881 46.1102 67.2358 46.1576 67.3872C46.205 67.5385 46.5844 67.8429 46.692 68.1456C46.7996 68.4483 48.5158 69.9684 48.8806 70.3736C49.2454 70.7789 49.5226 70.8293 49.2016 71.0816C49.0038 71.2355 48.7642 71.3404 48.5067 71.3859H42.415C42.415 71.3859 42.2016 70.9302 42.2545 70.0188C42.3074 69.1074 42.415 68.0951 42.415 68.0951L42.7962 67.8429Z" fill="white" stroke="#263238" stroke-width="0.2" stroke-linecap="round" stroke-linejoin="round"/>
<path d="M49.3513 70.8784C49.3513 70.937 49.313 70.9972 49.2091 71.0802C49.0112 71.2341 48.7716 71.3391 48.5142 71.3846H42.4225C42.3575 71.2209 42.3141 71.051 42.293 70.8784H49.3513Z" fill="white" stroke="#263238" stroke-width="0.2" stroke-linecap="round" stroke-linejoin="round"/>
<path d="M39.3856 20.6978L37.7441 21.9412L38.0396 39.121H45.1326C45.1326 39.121 45.47 21.5636 45.3442 21.2999C45.2183 21.0363 44.4578 20.7726 44.4578 20.7726L39.3856 20.6978Z" fill="white" stroke="#263238" stroke-width="0.2" stroke-linecap="round" stroke-linejoin="round"/>
<path d="M51.4159 28.1829L54.2375 28.8795C54.2375 28.8795 51.3795 24.2021 50.8597 23.0807C50.453 22.2051 49.9477 21.9415 49.738 21.8715C48.6564 21.2482 44.4597 20.7729 44.4597 20.7729L44.1314 29.3515L43.6299 43.5888H49.5994C49.5994 43.5888 49.096 38.5615 48.8188 36.9681L48.4266 34.7271C48.4266 34.7271 48.91 31.3093 49.3386 28.0365L51.4159 28.1829Z" fill="#92E3A9" fill-opacity="0.92" stroke="#263238" stroke-width="0.2" stroke-linecap="round" stroke-linejoin="round"/>
<path d="M45.1179 31.5649C44.9336 31.9958 44.7014 32.4091 44.4248 32.7986" stroke="#263238" stroke-width="0.2" stroke-linecap="round" stroke-linejoin="round"/>
<path d="M45.3389 21.2998L46.331 23.2707L45.5158 24.06L46.8071 25.4548C46.8071 25.4548 46.3037 28.4933 45.4155 30.8467" stroke="#263238" stroke-width="0.2" stroke-linecap="round" stroke-linejoin="round"/>
<path d="M38.9009 16.5313C38.9009 16.5313 38.3701 15.8803 37.9889 16.3474C37.6077 16.8145 39.0504 18.4274 39.0504 18.4274L38.9009 16.5313Z" fill="white" stroke="#263238" stroke-width="0.2" stroke-linecap="round" stroke-linejoin="round"/>
<path d="M45.0382 16.5313C45.0382 16.5313 45.569 15.8803 45.9502 16.3474C46.3313 16.8145 44.8887 18.4274 44.8887 18.4274L45.0382 16.5313Z" fill="white" stroke="#263238" stroke-width="0.2" stroke-linecap="round" stroke-linejoin="round"/>
<path d="M38.7817 16.1639C38.7817 16.1639 39.1063 19.1911 39.1665 19.7184C39.2267 20.2457 39.431 21.3768 39.6681 21.7706C39.9052 22.1645 41.5266 23.6406 41.9679 23.4828C42.4093 23.3249 43.945 21.9025 44.359 21.4809C44.773 21.0594 44.6235 20.2961 44.6837 20.1122C44.7439 19.9283 44.9773 18.112 44.9773 18.112L45.1178 16.1948C45.1178 16.1948 45.1779 16.0109 45.0886 14.8261C44.9992 13.6413 45.001 13.114 44.8533 12.8243C44.7056 12.5346 44.3225 12.3767 43.6422 12.2189C42.9619 12.061 41.3424 12.0887 40.3392 12.5362C39.3361 12.9838 38.8345 13.6153 38.8054 13.8513C38.7762 14.0872 38.7817 16.1639 38.7817 16.1639Z" fill="white" stroke="#263238" stroke-width="0.2" stroke-linecap="round" stroke-linejoin="round"/>
<path d="M41.4982 15.2947C41.4982 15.2947 40.5863 14.7674 40.0811 15.4575" stroke="#263238" stroke-width="0.2" stroke-linecap="round" stroke-linejoin="round"/>
<path d="M42.7656 15.3468C42.9591 15.2418 43.1864 15.1978 43.4112 15.2217C43.6361 15.2456 43.8454 15.336 44.0058 15.4786" stroke="#263238" stroke-width="0.2" stroke-linecap="round" stroke-linejoin="round"/>
<path d="M42.5006 15.6104C42.6223 15.81 42.6851 16.0341 42.683 16.2613C42.7122 16.7349 42.6228 17.7082 42.6228 17.7082L41.5029 17.6024" stroke="#263238" stroke-width="0.2" stroke-linecap="round" stroke-linejoin="round"/>
<path d="M40.9072 17.9541C40.9072 17.9541 41.4672 18.7678 42.8843 18.348" stroke="#263238" stroke-width="0.2" stroke-linecap="round" stroke-linejoin="round"/>
<path d="M41.0835 16.0711C41.0835 16.2241 41.0051 16.3478 40.9011 16.3478C40.7972 16.3478 40.7188 16.2241 40.7188 16.0711C40.7188 15.9181 40.799 15.7944 40.9011 15.7944C41.0033 15.7944 41.0835 15.9181 41.0835 16.0711Z" fill="#263238"/>
<path d="M43.5913 16.0711C43.5913 16.2241 43.5129 16.3478 43.4089 16.3478C43.305 16.3478 43.2266 16.2241 43.2266 16.0711C43.2266 15.9181 43.305 15.7944 43.4089 15.7944C43.5129 15.7944 43.5913 15.9181 43.5913 16.0711Z" fill="#263238"/>
<path d="M41.3203 16.4272C41.0866 16.6243 40.8033 16.7683 40.4941 16.8471" stroke="#263238" stroke-width="0.2" stroke-linecap="round" stroke-linejoin="round"/>
<path d="M43.0605 16.4272C43.0605 16.4272 43.4144 16.7951 43.8284 16.8471" stroke="#263238" stroke-width="0.2" stroke-linecap="round" stroke-linejoin="round"/>
<path d="M40.9355 20.4814C40.9355 20.4814 41.4973 21.0869 43.0603 20.5075" stroke="#263238" stroke-width="0.2" stroke-linecap="round" stroke-linejoin="round"/>
<path d="M38.4592 13.6882C38.4592 13.6882 38.5468 16.3476 38.6416 16.3997C38.7365 16.4517 38.9954 16.5054 39.0538 16.3215C39.0903 16.033 39.1 15.7424 39.083 15.4525C39.083 15.4525 39.3784 15.4264 39.4368 15.0049C39.4952 14.5834 39.2307 13.8461 39.2307 13.8461C39.2307 13.8461 40.2922 13.1626 41.2953 12.8989C42.2984 12.6353 42.831 13.0307 43.4493 13.0617C43.8125 13.08 44.1702 12.9767 44.4524 12.772C44.4524 12.772 44.157 13.1674 44.157 13.3514C44.157 13.5353 44.5418 14.5101 44.4816 14.7998C44.4214 15.0895 44.3649 15.4053 44.5418 15.5094C44.7187 15.6136 44.9248 15.747 44.9248 15.747C44.9248 15.747 44.9248 16.4582 45.0434 16.5103C45.1619 16.5624 45.368 16.2743 45.3972 15.8789C45.4264 15.4834 45.4264 14.5362 45.5796 14.2514C45.7328 13.9665 45.9626 13.7517 45.7857 13.3302C45.6088 12.9087 44.9886 12.5409 44.9011 12.5165C44.8136 12.492 43.6919 11.2014 42.2456 10.889C40.7992 10.5765 38.4993 12.4172 38.2622 12.9966C38.0251 13.576 38.4592 13.6882 38.4592 13.6882Z" fill="#263238" stroke="#263238" stroke-width="0.2" stroke-linecap="round" stroke-linejoin="round"/>
<path d="M25.4404 23.0303C25.2734 22.6601 25.1374 22.2793 25.0337 21.891C24.9699 21.5281 24.4683 20.9406 23.9686 20.7729C23.4287 20.5868 22.9456 20.2896 22.5587 19.9055C22.1192 19.4872 21.8693 19.3473 21.8055 19.7655C21.7416 20.1838 22.0572 20.3807 22.3709 20.633C22.6846 20.8852 22.9965 21.1082 22.9965 21.1082C22.6821 21.1991 22.3561 21.2538 22.0262 21.271C21.4471 21.2964 20.867 21.2493 20.3026 21.131C19.8321 21.0187 18.2034 19.9576 18.3602 20.3758C18.5171 20.7941 19.2995 21.3263 19.9269 21.8585C20.5543 22.3907 20.961 22.6722 21.6815 22.8643C22.4019 23.0563 23.56 23.3118 23.56 23.3118L24.2185 24.0947L25.4404 23.0303Z" fill="white" stroke="#263238" stroke-width="0.2" stroke-linecap="round" stroke-linejoin="round"/>
<path d="M20.5857 22.2766C20.5857 22.2766 19.5825 21.6061 19.4257 20.8509C19.2688 20.0958 19.3327 19.8175 19.5515 19.9282C19.7704 20.0388 20.303 21.1309 20.303 21.1309L21.2423 22.0537" fill="white"/>
<path d="M20.5857 22.2766C20.5857 22.2766 19.5825 21.6061 19.4257 20.8509C19.2688 20.0958 19.3327 19.8175 19.5515 19.9282C19.7704 20.0388 20.303 21.1309 20.303 21.1309L21.2423 22.0537" stroke="#263238" stroke-width="0.2" stroke-linecap="round" stroke-linejoin="round"/>
<path d="M21.4298 22.6409C21.4298 22.6409 20.4906 22.1364 20.3975 21.6335C20.3045 21.1306 20.0838 19.6496 20.3027 19.7603C20.5216 19.8709 20.9611 21.4382 20.9611 21.4382L21.4937 21.8581" fill="white"/>
<path d="M21.4298 22.6409C21.4298 22.6409 20.4906 22.1364 20.3975 21.6335C20.3045 21.1306 20.0838 19.6496 20.3027 19.7603C20.5216 19.8709 20.9611 21.4382 20.9611 21.4382L21.4937 21.8581" stroke="#263238" stroke-width="0.2" stroke-linecap="round" stroke-linejoin="round"/>
<path d="M21.9548 22.6687C21.9548 22.6687 21.3913 21.6922 21.2654 21.383C21.1396 21.0738 20.8587 19.7897 21.1414 19.845C21.4241 19.9003 21.674 21.1861 21.674 21.1861L22.3944 21.9998C22.3944 21.9998 23.3957 21.7199 23.6711 21.7752C23.9465 21.8305 24.2985 22.3351 24.2985 22.3351" fill="white"/>
<path d="M21.9548 22.6687C21.9548 22.6687 21.3913 21.6922 21.2654 21.383C21.1396 21.0738 20.8587 19.7897 21.1414 19.845C21.4241 19.9003 21.674 21.1861 21.674 21.1861L22.3944 21.9998C22.3944 21.9998 23.3957 21.7199 23.6711 21.7752C23.9465 21.8305 24.2985 22.3351 24.2985 22.3351" stroke="#263238" stroke-width="0.2" stroke-linecap="round" stroke-linejoin="round"/>
<path d="M26.1848 23.4746L25.4352 22.8545L23.584 24.578L24.1275 25.2144L26.1848 23.4746Z" fill="white" stroke="#263238" stroke-width="0.2" stroke-linecap="round" stroke-linejoin="round"/>
<path d="M39.386 20.6978C39.386 20.6978 38.7513 25.1799 38.6674 27.7432C38.5835 30.3065 38.8789 43.7561 38.8789 43.7561L33.2633 43.6047C33.2633 43.6047 33.8962 38.8573 34.3576 37.124C34.6749 35.7876 34.7884 34.4189 34.695 33.0553C34.6531 32.8291 34.3576 30.7573 34.3576 30.7573C34.3576 30.7573 31.1895 32.6403 30.8102 32.6029C30.4308 32.5654 28.2349 31.1381 26.546 29.2502C25.4719 28.012 24.6045 26.6416 23.9707 25.1815L25.9678 23.1455L30.6971 27.3656C30.6971 27.3656 33.1447 22.9583 33.3982 22.8444C33.6518 22.7305 39.386 20.6978 39.386 20.6978Z" fill="#92E3A9" fill-opacity="0.92" stroke="#263238" stroke-width="0.2" stroke-linecap="round" stroke-linejoin="round"/>
<path d="M37.0527 28.4448C37.3601 29.905 37.8005 31.3403 38.3696 32.7365" stroke="#263238" stroke-width="0.2" stroke-linecap="round" stroke-linejoin="round"/>
<path d="M38.3081 21.4497L37.2868 23.7559L38.1039 24.3629L36.6758 25.6975C36.7094 26.3854 36.791 27.0708 36.9202 27.7497" stroke="#263238" stroke-width="0.2" stroke-linecap="round" stroke-linejoin="round"/>
<path d="M34.233 30.1535C34.233 30.1535 33.3885 26.8383 33.1387 25.52L34.233 30.1535Z" fill="white"/>
<path d="M34.233 30.1535C34.233 30.1535 33.3885 26.8383 33.1387 25.52" stroke="#263238" stroke-width="0.2" stroke-linecap="round" stroke-linejoin="round"/>
<path d="M39.2949 23.2578L40.0153 25.1441L41.9705 23.4824L43.5226 25.2727L44.2029 23.6631" fill="white"/>
<path d="M39.2949 23.2578L40.0153 25.1441L41.9705 23.4824L43.5226 25.2727L44.2029 23.6631" stroke="#263238" stroke-width="0.2" stroke-linecap="round" stroke-linejoin="round"/>
<path d="M42.722 24.4573L41.8393 25.8634L40.8252 24.4475L41.9706 23.4824L42.722 24.4573Z" fill="#263238" stroke="#263238" stroke-width="0.2" stroke-linecap="round" stroke-linejoin="round"/>
<path d="M41.8392 25.8638L39.873 37.611L41.6258 38.8691L42.9937 37.5736L41.8392 25.8638Z" fill="#263238" stroke="#263238" stroke-width="0.2" stroke-linecap="round" stroke-linejoin="round"/>
<path d="M49.6509 21.0928C51.0522 20.7956 51.9183 19.541 51.5852 18.2904C51.2521 17.0399 49.8461 16.2672 48.4447 16.5644C47.0433 16.8616 46.1772 18.1163 46.5103 19.3668C46.8434 20.6173 48.2495 21.3901 49.6509 21.0928Z" fill="white" stroke="#263238" stroke-width="0.2" stroke-linecap="round" stroke-linejoin="round"/>
<path d="M47.3342 21.8225C47.3342 21.8225 47.2448 22.8641 47.3123 23.0643C47.3798 23.2644 47.8595 24.0652 47.8595 24.0652C47.8595 24.0652 47.792 24.6266 47.9032 24.8073C48.0145 24.9879 49.0924 26.1288 49.0924 26.1288L50.3691 25.1263L49.645 23.8438L49.6232 22.1821C49.6232 22.1821 48.2188 21.1031 47.3342 21.8225Z" fill="white" stroke="#263238" stroke-width="0.2" stroke-linecap="round" stroke-linejoin="round"/>
<path d="M47.9688 20.6736L48.3627 23.5624C48.3846 23.7094 48.4702 23.8428 48.6011 23.9341C48.7321 24.0254 48.8979 24.0672 49.0631 24.0506C49.222 24.0347 49.3683 23.9659 49.4728 23.8578C49.5773 23.7498 49.6322 23.6106 49.6266 23.468L49.5136 20.5173C49.5136 20.5173 48.5396 19.8647 47.9688 20.6736Z" fill="white" stroke="#263238" stroke-width="0.2" stroke-linecap="round" stroke-linejoin="round"/>
<path d="M48.0362 21.3032C48.0362 21.3032 47.1973 21.3927 47.1973 21.6287C47.1973 21.8647 47.4982 22.947 47.7663 23.0072C48.0344 23.0674 48.2369 23.0674 48.2369 22.5873C48.2094 22.1551 48.1423 21.7256 48.0362 21.3032Z" fill="white" stroke="#263238" stroke-width="0.2" stroke-linecap="round" stroke-linejoin="round"/>
<path d="M50.0174 22.1123C50.0174 22.1123 48.0695 22.262 48.0367 22.4378C48.0038 22.6136 48.0695 23.0676 48.2045 23.0676C48.3394 23.0676 50.083 23.079 50.1177 22.9049C50.1523 22.7308 50.2527 22.3515 50.0174 22.1123Z" fill="white" stroke="#263238" stroke-width="0.2" stroke-linecap="round" stroke-linejoin="round"/>
<path d="M49.9568 22.9551C49.9568 22.9551 48.2223 23.0413 48.1858 23.2008C48.1494 23.3603 48.1968 23.7607 48.3172 23.7639C48.4375 23.7672 49.986 23.8193 50.0225 23.6679C50.0589 23.5166 50.1593 23.1732 49.9568 22.9551Z" fill="white" stroke="#263238" stroke-width="0.2" stroke-linecap="round" stroke-linejoin="round"/>
<path d="M49.7196 23.707C49.7196 23.707 48.2824 23.7786 48.2606 23.9105C48.2387 24.0423 48.2697 24.3743 48.37 24.3776C48.4703 24.3808 49.7507 24.4231 49.7798 24.2978C49.809 24.1725 49.8874 23.8877 49.7196 23.707Z" fill="white" stroke="#263238" stroke-width="0.2" stroke-linecap="round" stroke-linejoin="round"/>
<path d="M49.8816 21.3325C49.8816 21.3325 47.9338 21.4822 47.9009 21.658C47.8681 21.8338 47.9338 22.2862 48.0687 22.2862C48.2037 22.2862 49.9473 22.2992 49.982 22.1235C50.0166 21.9477 50.1169 21.5653 49.8816 21.3325Z" fill="white" stroke="#263238" stroke-width="0.2" stroke-linecap="round" stroke-linejoin="round"/>
<path d="M50.3375 24.5566L49.7721 24.2979L48.2383 25.9758L48.8675 26.7244L50.3375 24.5566Z" fill="white" stroke="#263238" stroke-width="0.2" stroke-linecap="round" stroke-linejoin="round"/>
<path d="M50.2246 24.2603C50.2246 24.2603 49.6665 25.4207 49.2488 25.8357C48.8312 26.2507 48.3643 26.6234 48.3643 26.6234C48.3643 26.6234 50.3158 30.7295 50.5894 31.5172C50.863 32.305 51.9372 32.8437 52.4023 32.9673C52.8674 33.091 53.9818 32.7607 54.4085 32.3456C54.8353 31.9306 55.4299 30.6042 55.1053 29.8588C54.7806 29.1134 50.2246 24.2603 50.2246 24.2603Z" fill="#92E3A9" fill-opacity="0.92" stroke="#263238" stroke-width="0.2" stroke-linecap="round" stroke-linejoin="round"/>
<path d="M53.4214 21.916C55.9442 21.3334 57.46 19.0362 56.8071 16.7851C56.1542 14.534 53.5798 13.1814 51.0571 13.764C48.5343 14.3466 47.0185 16.6438 47.6714 18.8949C48.3243 21.146 50.8987 22.4986 53.4214 21.916Z" fill="#92E3A9" fill-opacity="0.92" stroke="#263238" stroke-width="0.2" stroke-linecap="round" stroke-linejoin="round"/>
<path d="M53.1052 21.1812C55.1739 20.7544 56.4632 18.9118 55.9848 17.0658C55.5065 15.2197 53.4416 14.0693 51.3728 14.4961C49.304 14.923 48.0148 16.7656 48.4931 18.6116C48.9715 20.4576 51.0364 21.6081 53.1052 21.1812Z" fill="#263238" stroke="#263238" stroke-width="0.2" stroke-linecap="round" stroke-linejoin="round"/>
<path d="M51.868 19.3992C52.7292 19.3992 53.4274 18.7762 53.4274 18.0077C53.4274 17.2392 52.7292 16.6162 51.868 16.6162C51.0068 16.6162 50.3086 17.2392 50.3086 18.0077C50.3086 18.7762 51.0068 19.3992 51.868 19.3992Z" fill="white" stroke="#263238" stroke-width="0.2" stroke-linecap="round" stroke-linejoin="round"/>
<path d="M53.0997 17.843C53.1 17.691 53.0498 17.5424 52.9555 17.4158C52.8611 17.2893 52.7268 17.1906 52.5695 17.1322C52.4122 17.0738 52.2391 17.0583 52.072 17.0878C51.9049 17.1173 51.7513 17.1903 51.6307 17.2977C51.5101 17.405 51.428 17.5419 51.3946 17.691C51.3612 17.84 51.3782 17.9945 51.4433 18.135C51.5084 18.2755 51.6187 18.3955 51.7603 18.48C51.9019 18.5645 52.0685 18.6096 52.2388 18.6096C52.4668 18.6096 52.6855 18.5289 52.8469 18.3852C53.0083 18.2415 53.0992 18.0465 53.0997 17.843Z" fill="#92E3A9" fill-opacity="0.92" stroke="#263238" stroke-width="0.2" stroke-linecap="round" stroke-linejoin="round"/>
</svg>
