<svg width="80" height="47" viewBox="0 0 80 47" fill="none" xmlns="http://www.w3.org/2000/svg">
<path d="M21.1784 26.3434C21.1784 26.3434 26.8716 26.9114 29.7574 30.4334C29.7574 30.4334 32.8056 26.3434 38.2783 26.4286C39.6161 24.8145 40.4679 22.8536 40.7344 20.7741C41.001 18.6947 40.6713 16.5824 39.7839 14.683C38.8965 12.7837 37.4879 11.1755 35.7219 10.0457C33.956 8.91591 31.9054 8.31099 29.809 8.30139C27.7126 8.29178 25.6566 8.87787 23.8804 9.99144C22.1042 11.105 20.6808 12.7002 19.776 14.5913C18.8713 16.4825 18.5223 18.5917 18.7698 20.6735C19.0172 22.7552 19.851 24.7239 21.1739 26.3502L21.1784 26.3434Z" fill="#92E3A9"/>
<path opacity="0.4" d="M21.1784 26.3434C21.1784 26.3434 26.8716 26.9114 29.7574 30.4334C29.7574 30.4334 32.8056 26.3434 38.2783 26.4286C39.6161 24.8145 40.4679 22.8536 40.7344 20.7741C41.001 18.6947 40.6713 16.5824 39.7839 14.683C38.8965 12.7837 37.4879 11.1755 35.7219 10.0457C33.956 8.91591 31.9054 8.31099 29.809 8.30139C27.7126 8.29178 25.6566 8.87787 23.8804 9.99144C22.1042 11.105 20.6808 12.7002 19.776 14.5913C18.8713 16.4825 18.5223 18.5917 18.7698 20.6735C19.0172 22.7552 19.851 24.7239 21.1739 26.3502L21.1784 26.3434Z" fill="white"/>
<path d="M24.3789 22.3452C27.2192 23.245 28.9893 25.8888 29.4506 26.6511L29.4086 45.4609H30.2232L30.1095 28.962C30.7299 28.0236 32.5034 25.6809 35.2437 24.8436C35.2437 24.8436 31.9898 25.615 30.0891 28.2088L29.9834 24.2585C30.4515 23.5075 32.2841 20.8501 35.2437 19.9412C35.2437 19.9412 31.8353 20.7478 29.9619 23.4848L29.8551 19.5083L29.8619 19.5617C29.8619 19.5617 31.7842 16.1022 35.2437 15.0456C35.2437 15.0456 31.682 15.8909 29.8357 18.7823L29.5744 13.4243L29.4926 21.1046C27.6839 18.3529 24.38 17.5439 24.38 17.5439C27.2942 18.4665 29.0768 21.2182 29.4835 21.9033L29.4563 25.8627C27.6396 23.1462 24.3789 22.3452 24.3789 22.3452Z" fill="#263238"/>
<path d="M24.3789 22.3452C27.2192 23.245 28.9893 25.8888 29.4506 26.6511L29.4086 45.4609H30.2232L30.1095 28.962C30.7299 28.0236 32.5034 25.6809 35.2437 24.8436C35.2437 24.8436 31.9898 25.615 30.0891 28.2088L29.9834 24.2585C30.4515 23.5075 32.2841 20.8501 35.2437 19.9412C35.2437 19.9412 31.8353 20.7478 29.9619 23.4848L29.8551 19.5083L29.8619 19.5617C29.8619 19.5617 31.7842 16.1022 35.2437 15.0456C35.2437 15.0456 31.682 15.8909 29.8357 18.7823L29.5744 13.4243L29.4926 21.1046C27.6839 18.3529 24.38 17.5439 24.38 17.5439C27.2942 18.4665 29.0768 21.2182 29.4835 21.9033L29.4563 25.8627C27.6396 23.1462 24.3789 22.3452 24.3789 22.3452Z" fill="#263238"/>
<path d="M43.9459 29.5028C43.9459 29.5028 48.6984 29.9731 51.1036 32.918C51.1036 32.918 53.6485 29.5096 58.2192 29.5755C59.3356 28.2281 60.0464 26.5913 60.2687 24.8556C60.4911 23.12 60.2158 21.3569 59.475 19.7716C58.7342 18.1863 57.5583 16.844 56.0842 15.9011C54.6102 14.9582 52.8986 14.4533 51.1488 14.4454C49.3989 14.4375 47.6828 14.9267 46.2003 15.8563C44.7177 16.7858 43.5297 18.1173 42.7746 19.6958C42.0194 21.2743 41.7281 23.0349 41.9347 24.7725C42.1413 26.5101 42.8372 28.1533 43.9414 29.5107L43.9459 29.5028Z" fill="#92E3A9"/>
<path opacity="0.4" d="M43.9459 29.5028C43.9459 29.5028 48.6984 29.9731 51.1036 32.918C51.1036 32.918 53.6485 29.5096 58.2192 29.5755C59.3356 28.2281 60.0464 26.5913 60.2687 24.8556C60.4911 23.12 60.2158 21.3569 59.475 19.7716C58.7342 18.1863 57.5583 16.844 56.0842 15.9011C54.6102 14.9582 52.8986 14.4533 51.1488 14.4454C49.3989 14.4375 47.6828 14.9267 46.2003 15.8563C44.7177 16.7858 43.5297 18.1173 42.7746 19.6958C42.0194 21.2743 41.7281 23.0349 41.9347 24.7725C42.1413 26.5101 42.8372 28.1533 43.9414 29.5107L43.9459 29.5028Z" fill="white"/>
<path d="M46.6182 26.1649C48.9927 26.9171 50.4662 29.1189 50.8514 29.7597L50.8162 45.461H51.4978L51.3945 31.6888C51.9125 30.9049 53.3929 28.9496 55.6799 28.2509C55.6799 28.2509 52.9635 28.8951 51.3774 31.0594L51.2888 27.7646C51.6796 27.1386 53.21 24.9175 55.6799 24.162C55.6799 24.162 52.8396 24.8357 51.2718 27.1159L51.1843 23.7984L51.19 23.8427C51.19 23.8427 52.7942 20.9547 55.6822 20.073C55.6822 20.073 52.709 20.7786 51.1672 23.1917L50.9502 18.7188L50.8821 25.1299C49.371 22.8338 46.6182 22.1578 46.6182 22.1578C49.0506 22.9281 50.5378 25.2254 50.8775 25.7934L50.8559 29.0984C49.3392 26.8341 46.6182 26.1649 46.6182 26.1649Z" fill="#263238"/>
<path d="M46.6182 26.1649C48.9927 26.9171 50.4662 29.1189 50.8514 29.7597L50.8162 45.461H51.4978L51.3945 31.6888C51.9125 30.9049 53.3929 28.9496 55.6799 28.2509C55.6799 28.2509 52.9635 28.8951 51.3774 31.0594L51.2888 27.7646C51.6796 27.1386 53.21 24.9175 55.6799 24.162C55.6799 24.162 52.8396 24.8357 51.2718 27.1159L51.1843 23.7984L51.19 23.8427C51.19 23.8427 52.7942 20.9547 55.6822 20.073C55.6822 20.073 52.709 20.7786 51.1672 23.1917L50.9502 18.7188L50.8821 25.1299C49.371 22.8338 46.6182 22.1578 46.6182 22.1578C49.0506 22.9281 50.5378 25.2254 50.8775 25.7934L50.8559 29.0984C49.3392 26.8341 46.6182 26.1649 46.6182 26.1649Z" fill="#263238"/>
<path d="M2.07583 29.5028C2.07583 29.5028 6.82827 29.9731 9.23345 32.918C9.23345 32.918 11.7784 29.5096 16.349 29.5755C17.4655 28.2281 18.1763 26.5913 18.3986 24.8556C18.621 23.12 18.3457 21.3569 17.6049 19.7716C16.8641 18.1863 15.6882 16.844 14.2141 15.9011C12.7401 14.9582 11.0285 14.4533 9.27864 14.4454C7.52881 14.4375 5.81273 14.9267 4.33017 15.8563C2.84762 16.7858 1.65961 18.1173 0.904439 19.6958C0.149271 21.2743 -0.14198 23.0349 0.064596 24.7725C0.271172 26.5101 0.967076 28.1533 2.07129 29.5107L2.07583 29.5028Z" fill="#92E3A9"/>
<path opacity="0.4" d="M2.07583 29.5028C2.07583 29.5028 6.82827 29.9731 9.23345 32.918C9.23345 32.918 11.7784 29.5096 16.349 29.5755C17.4655 28.2281 18.1763 26.5913 18.3986 24.8556C18.621 23.12 18.3457 21.3569 17.6049 19.7716C16.8641 18.1863 15.6882 16.844 14.2141 15.9011C12.7401 14.9582 11.0285 14.4533 9.27864 14.4454C7.52881 14.4375 5.81273 14.9267 4.33017 15.8563C2.84762 16.7858 1.65961 18.1173 0.904439 19.6958C0.149271 21.2743 -0.14198 23.0349 0.064596 24.7725C0.271172 26.5101 0.967076 28.1533 2.07129 29.5107L2.07583 29.5028Z" fill="white"/>
<path d="M4.74805 26.1649C7.12256 26.9171 8.59612 29.1189 8.98127 29.7597L8.94719 45.461H9.62887L9.52548 31.6888C10.0436 30.9049 11.5239 28.9496 13.811 28.2509C13.811 28.2509 11.0945 28.8951 9.50843 31.0594L9.41982 27.7646C9.81065 27.1386 11.341 24.9175 13.811 24.162C13.811 24.162 10.9706 24.8357 9.40277 27.1159L9.3187 23.7984L9.32552 23.8427C9.32552 23.8427 10.9297 20.9547 13.8166 20.073C13.8166 20.073 10.8445 20.7786 9.3028 23.1917L9.08466 18.7188L9.01649 25.1299C7.50089 22.8304 4.74805 22.1544 4.74805 22.1544C7.1805 22.9247 8.66883 25.222 9.0074 25.79L8.98581 29.095C7.46908 26.8341 4.74805 26.1649 4.74805 26.1649Z" fill="#263238"/>
<path d="M4.74805 26.1649C7.12256 26.9171 8.59612 29.1189 8.98127 29.7597L8.94719 45.461H9.62887L9.52548 31.6888C10.0436 30.9049 11.5239 28.9496 13.811 28.2509C13.811 28.2509 11.0945 28.8951 9.50843 31.0594L9.41982 27.7646C9.81065 27.1386 11.341 24.9175 13.811 24.162C13.811 24.162 10.9706 24.8357 9.40277 27.1159L9.3187 23.7984L9.32552 23.8427C9.32552 23.8427 10.9297 20.9547 13.8166 20.073C13.8166 20.073 10.8445 20.7786 9.3028 23.1917L9.08466 18.7188L9.01649 25.1299C7.50089 22.8304 4.74805 22.1544 4.74805 22.1544C7.1805 22.9247 8.66883 25.222 9.0074 25.79L8.98581 29.095C7.46908 26.8341 4.74805 26.1649 4.74805 26.1649Z" fill="#263238"/>
<path d="M60.3802 26.3708C60.3802 26.3708 66.0609 26.9332 68.9466 30.4609C68.9466 30.4609 71.9903 26.3776 77.4585 26.4617C78.7943 24.8499 79.6447 22.8918 79.9108 20.8154C80.1769 18.739 79.8477 16.6298 78.9615 14.7332C78.0754 12.8367 76.6687 11.2309 74.9054 10.1027C73.142 8.9746 71.0945 8.37056 69.0011 8.36096C66.9078 8.35135 64.8548 8.93656 63.0811 10.0485C61.3075 11.1604 59.8862 12.7532 58.9826 14.6416C58.0791 16.5299 57.7306 18.636 57.9776 20.7148C58.2246 22.7935 59.057 24.7593 60.3779 26.3833L60.3802 26.3708Z" fill="#92E3A9"/>
<path opacity="0.4" d="M60.3802 26.3708C60.3802 26.3708 66.0609 26.9332 68.9466 30.4609C68.9466 30.4609 71.9903 26.3776 77.4585 26.4617C78.7943 24.8499 79.6447 22.8918 79.9108 20.8154C80.1769 18.739 79.8477 16.6298 78.9615 14.7332C78.0754 12.8367 76.6687 11.2309 74.9054 10.1027C73.142 8.9746 71.0945 8.37056 69.0011 8.36096C66.9078 8.35135 64.8548 8.93656 63.0811 10.0485C61.3075 11.1604 59.8862 12.7532 58.9826 14.6416C58.0791 16.5299 57.7306 18.636 57.9776 20.7148C58.2246 22.7935 59.057 24.7593 60.3779 26.3833L60.3802 26.3708Z" fill="white"/>
<path d="M63.5762 22.3781C66.4165 23.2768 68.1798 25.916 68.6399 26.6784L68.599 45.4609H69.4204L69.2977 28.987C69.9169 28.0485 71.6836 25.7093 74.4239 24.8731C74.4239 24.8731 71.1746 25.6445 69.2773 28.2337L69.1705 24.2891C69.6386 23.5404 71.4689 20.8807 74.4239 19.9797C74.4239 19.9797 71.0258 20.7853 69.15 23.5177L69.0432 19.5412L69.0512 19.5935C69.0512 19.5935 70.9656 16.1408 74.4194 15.0853C74.4194 15.0853 70.8633 15.9294 69.0194 18.8163L68.7581 13.4663L68.6774 21.1352C66.8698 18.388 63.5762 17.5802 63.5762 17.5802C66.4858 18.5005 68.2661 21.2488 68.6717 21.9339L68.6456 25.8865C66.8323 23.178 63.5762 22.3781 63.5762 22.3781Z" fill="#263238"/>
<path d="M63.5762 22.3781C66.4165 23.2768 68.1798 25.916 68.6399 26.6784L68.599 45.4609H69.4204L69.2977 28.987C69.9169 28.0485 71.6836 25.7093 74.4239 24.8731C74.4239 24.8731 71.1746 25.6445 69.2773 28.2337L69.1705 24.2891C69.6386 23.5404 71.4689 20.8807 74.4239 19.9797C74.4239 19.9797 71.0258 20.7853 69.15 23.5177L69.0432 19.5412L69.0512 19.5935C69.0512 19.5935 70.9656 16.1408 74.4194 15.0853C74.4194 15.0853 70.8633 15.9294 69.0194 18.8163L68.7581 13.4663L68.6774 21.1352C66.8698 18.388 63.5762 17.5802 63.5762 17.5802C66.4858 18.5005 68.2661 21.2488 68.6717 21.9339L68.6456 25.8865C66.8323 23.178 63.5762 22.3781 63.5762 22.3781Z" fill="#263238"/>
<path d="M53.4332 41.8062C53.4332 41.8062 53.0026 44.0659 52.9787 44.2C52.9549 44.334 52.8174 45.4372 52.8174 45.4372L54.8886 45.41L54.6738 43.6887L55.2112 42.1288L53.4332 41.8062Z" fill="white" stroke="#263238" stroke-width="0.2" stroke-linecap="round" stroke-linejoin="round"/>
<path d="M55.9882 31.5842C55.9882 31.5842 53.2444 40.4074 53.1365 41.0255C53.0285 41.6435 53.0558 41.8866 53.0558 41.8866L55.4451 42.4786L56.3335 40.2461L56.3597 30.9116L55.9882 31.5842Z" fill="#92E3A9" stroke="#263238" stroke-width="0.2" stroke-linecap="round" stroke-linejoin="round"/>
<path d="M55.3467 45.4607L55.8716 41.2798L66.9807 41.4343L67.2772 45.4392L55.3467 45.4607Z" fill="#263238" stroke="#263238" stroke-width="0.2" stroke-linecap="round" stroke-linejoin="round"/>
<path d="M55.7858 41.0518L55.7256 42.1958C55.7256 42.1958 57.0049 43.2808 60.8598 43.2502C64.7147 43.2195 65.9951 42.7378 66.387 42.6173C66.779 42.4969 67.0494 42.3458 67.0494 42.0754C67.0201 41.7412 66.9696 41.4091 66.8983 41.0813C66.8983 41.0813 63.4058 41.5358 60.7552 41.6232C59.0803 41.6645 57.4077 41.4721 55.7858 41.0518Z" fill="#92E3A9" stroke="#263238" stroke-width="0.2" stroke-linecap="round" stroke-linejoin="round"/>
<path d="M59.7463 22.9779C59.7463 22.9779 57.5433 24.4719 57.4013 24.9571C57.2593 25.4422 55.7471 30.0594 55.8323 30.7161C55.9175 31.3728 55.9754 33.3099 55.9754 33.3099C55.9754 33.3099 55.2938 40.8084 55.521 41.2355C55.7482 41.6627 58.2011 42.3467 61.7697 42.2331C65.3383 42.1194 66.8437 41.5775 66.9868 41.4378C67.13 41.298 67.3004 41.039 67.2424 40.5834C67.1845 40.1278 67.1856 37.1614 67.1856 37.1614L69.3522 36.3661C69.3522 36.3661 68.3831 24.5344 68.0127 23.9073C67.6424 23.2801 64.5066 22.3394 64.0215 22.3678C63.5364 22.3962 59.7463 22.9779 59.7463 22.9779Z" fill="#92E3A9" stroke="#263238" stroke-width="0.2" stroke-linecap="round" stroke-linejoin="round"/>
<path d="M58.3018 32.2432L60.9626 33.8837" stroke="#263238" stroke-width="0.2" stroke-linecap="round" stroke-linejoin="round"/>
<path d="M57.3965 31.6841L58.0134 32.0647" stroke="#263238" stroke-width="0.2" stroke-linecap="round" stroke-linejoin="round"/>
<path d="M61.7109 33.9326L62.0313 34.1212" stroke="#263238" stroke-width="0.2" stroke-linecap="round" stroke-linejoin="round"/>
<path d="M60.0117 32.9331L61.3205 33.7034" stroke="#263238" stroke-width="0.2" stroke-linecap="round" stroke-linejoin="round"/>
<path d="M58.1111 13.7082C58.1111 13.7082 57.6748 15.518 57.6748 15.7146C57.6748 15.9111 57.8271 16.3474 57.8055 16.4565C57.7839 16.5655 56.5819 17.7653 56.7364 17.9391C56.8909 18.1129 57.2601 18.6594 57.2601 18.6594C57.2601 18.6594 57.7839 20.9499 57.9793 20.9499C58.1747 20.9499 59.8335 20.5568 59.8335 20.5568L59.7471 22.9779L59.2927 23.4323C59.2927 23.4323 59.0098 26.0284 59.3586 25.9852C59.7074 25.942 64.1576 22.6688 64.2223 22.495C64.2871 22.3212 64.1792 22.211 64.0485 22.1462C63.9178 22.0815 63.594 21.535 63.594 21.535C63.594 21.535 63.3759 18.8298 63.3759 18.7651C63.3759 18.7003 63.9201 16.3656 63.9644 16.2997C64.0087 16.2338 64.27 15.0783 62.4591 14.2546C60.6481 13.431 58.5326 13.2071 58.3588 13.273C58.1849 13.3389 58.1111 13.7082 58.1111 13.7082Z" fill="white" stroke="#263238" stroke-width="0.2" stroke-linecap="round" stroke-linejoin="round"/>
<path d="M59.833 20.5568L60.9862 20.3784L59.8773 21.6043L59.833 20.5568Z" fill="#263238" stroke="#263238" stroke-width="0.2" stroke-linecap="round" stroke-linejoin="round"/>
<path d="M57.8311 18.7246C57.8311 18.7246 58.5071 18.7905 58.9672 18.311C58.9672 18.311 58.9456 19.1393 58.64 19.2483C58.3344 19.3574 57.8311 18.7246 57.8311 18.7246Z" fill="#263238" stroke="#263238" stroke-width="0.2" stroke-linecap="round" stroke-linejoin="round"/>
<path d="M58.4811 16.3907C58.4811 16.535 58.4277 16.6532 58.3607 16.6532C58.2937 16.6532 58.2471 16.5395 58.2471 16.3907C58.2471 16.2419 58.3005 16.1294 58.3607 16.1294C58.4209 16.1294 58.4811 16.2464 58.4811 16.3907Z" fill="#263238"/>
<path d="M58.0664 15.498C58.0664 15.498 58.3788 15.2707 58.9174 15.498" stroke="#263238" stroke-width="0.2" stroke-linecap="round" stroke-linejoin="round"/>
<path d="M60.6042 11.0965C60.6042 11.0965 59.5238 10.3296 58.7217 10.3296C57.9196 10.3296 57.2924 10.9226 57.2924 11.3748C57.2924 11.827 57.4662 12.1769 57.2572 12.3519C57.0482 12.5269 56.5596 12.0031 56.2813 12.7348C56.0029 13.4664 57.1902 14.1993 57.4322 14.2686C57.6742 14.3379 58.0593 13.8141 58.2684 13.9902C58.4774 14.1663 58.5819 14.548 59.1045 14.548C59.6272 14.548 60.1157 14.1299 60.2554 14.339C60.3952 14.548 60.0464 15.1752 60.2907 15.3502C60.5349 15.5251 61.0223 15.9421 61.0223 15.9421C61.0223 15.9421 60.7781 16.6044 60.953 16.6749L61.1269 16.7442C61.1269 16.7442 61.4404 16.0125 61.8937 16.0818C62.3471 16.1511 62.4891 16.3261 62.4891 17.0952C62.4891 17.8644 61.6518 18.1405 61.6518 18.1405C61.6518 18.1405 62.4539 19.0823 62.6981 19.1516C62.9424 19.2209 63.3253 19.4652 63.465 19.2221C63.6048 18.979 64.3739 17.4781 64.5114 17.3043C64.6489 17.1305 65.6612 17.0952 65.8747 16.2931C66.0883 15.491 65.4919 15.1082 65.7361 14.8639C65.9804 14.6196 66.9859 14.5151 66.6769 13.4346C66.3678 12.3542 65.526 12.2837 65.2124 12.1849C64.8988 12.086 64.5159 11.276 64.0274 11.0692C63.5389 10.8624 63.2605 10.9999 63.156 11.0351C63.0515 11.0703 62.981 10.5466 61.971 10.6511C60.961 10.7556 60.6042 11.0965 60.6042 11.0965Z" fill="#263238" stroke="#263238" stroke-width="0.2" stroke-linecap="round" stroke-linejoin="round"/>
<path d="M58.181 17.2692C57.9049 17.2692 57.5697 17.1647 57.4572 17.0318C57.3073 16.8579 57.2073 15.9536 57.3061 15.6684C57.3146 15.6317 57.333 15.598 57.3592 15.571C57.3854 15.544 57.4185 15.5246 57.455 15.515C57.4845 15.515 57.5606 15.4946 58.732 15.5639C58.7778 15.5664 58.8226 15.5784 58.8636 15.5992C58.9045 15.6199 58.9407 15.649 58.9698 15.6844C58.999 15.7199 59.0205 15.761 59.0329 15.8052C59.0454 15.8493 59.0485 15.8956 59.0421 15.9411C59.0149 16.1444 58.9774 16.4228 58.9637 16.5148C58.8871 16.7974 58.7123 17.0435 58.4707 17.209C58.3804 17.2523 58.281 17.273 58.181 17.2692ZM57.522 15.7377C57.4572 15.8934 57.5118 16.733 57.6356 16.8852C57.7311 16.9988 58.2139 17.0965 58.3661 17.0113C58.5442 16.8794 58.6765 16.6951 58.7445 16.4841C58.7581 16.3921 58.7956 16.1149 58.8229 15.9161C58.8261 15.8869 58.818 15.8576 58.8002 15.8343C58.7806 15.8124 58.7533 15.799 58.724 15.7968C57.9776 15.7479 57.6208 15.732 57.522 15.7377Z" fill="#263238"/>
<path d="M58.93 15.9263L61.4692 16.2603L61.2511 16.4568L59.6378 16.3262L59.3537 16.4568L58.8516 16.5L58.93 15.9263Z" fill="#263238" stroke="#263238" stroke-width="0.2" stroke-linecap="round" stroke-linejoin="round"/>
<path d="M55.7275 34.535C55.7275 34.535 54.8811 33.6704 55.0253 33.5625C55.1113 33.5042 55.2156 33.4794 55.3186 33.4928C55.4216 33.5062 55.5161 33.5569 55.5843 33.6352C55.7456 33.8147 56.6068 34.8599 56.6068 34.8599L55.7275 34.535Z" fill="white" stroke="#263238" stroke-width="0.2" stroke-linecap="round" stroke-linejoin="round"/>
<path d="M56.8266 35.3277C56.8266 35.3277 55.9438 34.8948 55.7632 34.7869C55.5825 34.6789 54.6645 34.1052 54.7725 33.9768C54.8804 33.8484 55.1872 33.7962 55.403 34.012C55.6189 34.2279 56.4835 34.6255 56.5391 34.6426C56.5948 34.6596 57.0254 35.2549 57.0254 35.2549L56.8266 35.3277Z" fill="white" stroke="#263238" stroke-width="0.2" stroke-linecap="round" stroke-linejoin="round"/>
<path d="M61.366 35.3098C61.366 35.3098 60.1231 34.8053 60.0333 34.7519C59.9436 34.6985 59.7447 34.2827 59.4562 34.0703C59.1676 33.8578 58.8256 33.7999 58.5382 33.6919C58.2178 33.5573 57.9049 33.4056 57.6009 33.2375C57.5111 33.1829 57.1464 33.4533 57.6372 33.8317C58.128 34.21 58.4836 34.4804 58.4836 34.4804C58.4836 34.4804 57.7633 34.5156 57.5293 34.552C57.2953 34.5883 56.7908 34.5338 56.7181 34.4384C56.6454 34.3429 56.1239 33.6283 55.9626 33.484C55.8012 33.3397 55.4399 33.2852 55.3672 33.5192C55.2945 33.7533 55.5661 33.7362 55.9796 34.3145C56.3932 34.8928 56.9533 35.6654 57.2407 35.6472C57.5282 35.629 59.655 35.8642 59.655 35.8642L61.5467 36.7288L61.366 35.3098Z" fill="white" stroke="#263238" stroke-width="0.2" stroke-linecap="round" stroke-linejoin="round"/>
<path d="M65.6402 26.7821C65.6402 26.7821 64.8994 29.3758 65.0982 30.1461C65.2971 30.9164 66.4957 34.9327 66.4957 34.9327C66.4957 34.9327 62.4476 35.0179 61.9625 35.0179C61.7143 35.0125 61.4661 35.0319 61.2218 35.0758L61.1934 37.5844C61.1934 37.5844 64.6995 38.4933 67.0092 38.2661C69.319 38.0388 70.7437 37.698 70.8289 37.2969C70.8811 37.015 70.9002 36.7278 70.8857 36.4414C70.8857 36.4414 69.4894 28.0886 69.1179 26.7207C68.7464 25.3528 68.3487 23.7838 68.0351 23.5554C67.7216 23.3271 65.9537 23.0146 65.9537 23.0146" fill="#92E3A9"/>
<path d="M65.6402 26.7821C65.6402 26.7821 64.8994 29.3758 65.0982 30.1461C65.2971 30.9164 66.4957 34.9327 66.4957 34.9327C66.4957 34.9327 62.4476 35.0179 61.9625 35.0179C61.7143 35.0125 61.4661 35.0319 61.2218 35.0758L61.1934 37.5844C61.1934 37.5844 64.6995 38.4933 67.0092 38.2661C69.319 38.0388 70.7437 37.698 70.8289 37.2969C70.8811 37.015 70.9002 36.7278 70.8857 36.4414C70.8857 36.4414 69.4894 28.0886 69.1179 26.7207C68.7464 25.3528 68.3487 23.7838 68.0351 23.5554C67.7216 23.3271 65.9537 23.0146 65.9537 23.0146" stroke="#263238" stroke-width="0.2" stroke-linecap="round" stroke-linejoin="round"/>
<path d="M47.6833 45.4608C47.7128 44.9212 47.7503 44.0611 47.7128 43.7396C47.656 43.2579 46.4824 39.812 46.4824 39.812L32.8841 39.7983L32.5205 45.4608H47.6833Z" fill="#263238" stroke="#263238" stroke-width="0.2" stroke-linecap="round" stroke-linejoin="round"/>
<path d="M47.4576 40.1675L47.0384 40.564L46.2158 41.2457L47.7189 43.7452C47.7189 43.7452 48.3143 43.1214 48.4006 42.8669C48.4869 42.6124 48.6835 41.8444 48.6835 41.8444L48.8539 41.4479L47.4576 40.1675Z" fill="white" stroke="#263238" stroke-width="0.2" stroke-linecap="round" stroke-linejoin="round"/>
<path d="M36.8402 21.7917C36.8402 21.7917 32.0378 23.2687 31.8572 23.9947C31.6765 24.7206 28.9316 32.1555 28.9316 32.1555L33.3012 32.6247C33.3012 32.6247 32.3264 39.9562 32.5059 40.1732C32.6854 40.3902 38.5728 40.606 39.6556 40.6424C40.7383 40.6787 46.3372 40.0641 46.4815 39.8119C46.6257 39.5596 46.5894 38.9814 46.5894 38.9814L46.4087 33.6359L46.4451 31.434L48.4311 35.3332C48.4311 35.3332 49.0093 35.8036 50.0557 35.6582C51.1021 35.5127 51.8622 35.0447 51.6463 33.6006C51.4304 32.1566 48.5787 25.5477 48.2515 24.5718C47.9243 23.5959 47.6062 23.1278 47.0961 22.8744C46.586 22.6211 41.679 21.3975 41.679 21.3975L36.8402 21.7917Z" fill="#92E3A9" stroke="#263238" stroke-width="0.2" stroke-linecap="round" stroke-linejoin="round"/>
<path d="M46.4463 31.4344L46.5906 26.6309" stroke="#263238" stroke-width="0.2" stroke-linecap="round" stroke-linejoin="round"/>
<path d="M46.5908 29.5198L47.06 26.8477" stroke="#263238" stroke-width="0.2" stroke-linecap="round" stroke-linejoin="round"/>
<path d="M33.3008 32.6248L33.8427 26.125" stroke="#263238" stroke-width="0.2" stroke-linecap="round" stroke-linejoin="round"/>
<path d="M33.5178 28.7972L33.1201 26.1978" stroke="#263238" stroke-width="0.2" stroke-linecap="round" stroke-linejoin="round"/>
<path d="M36.8765 20.708C36.8765 20.708 35.7927 21.5749 35.829 21.7555C35.8654 21.9362 35.8654 22.7303 36.2619 22.911C36.6584 23.0916 39.1874 25.0776 39.1874 25.0776L36.8765 20.708Z" fill="#92E3A9" stroke="#263238" stroke-width="0.2" stroke-linecap="round" stroke-linejoin="round"/>
<path d="M36.4062 17.7271L36.9482 22.1898L39.1875 25.0778L41.8597 21.1014L41.896 18.3201C41.896 18.3201 41.6427 19.1518 40.0907 19.079C38.5388 19.0063 36.4062 17.7271 36.4062 17.7271Z" fill="white" stroke="#263238" stroke-width="0.2" stroke-linecap="round" stroke-linejoin="round"/>
<path d="M39.1811 20.1058L36.877 20.708L36.3203 17.2803L39.1811 20.1058Z" fill="#263238" stroke="#263238" stroke-width="0.2" stroke-linecap="round" stroke-linejoin="round"/>
<path d="M39.1875 25.0776C39.1875 25.0776 39.9828 22.5145 40.0544 22.1532C40.1259 21.7919 41.9687 20.3467 41.9687 20.3467C42.0164 20.3458 42.0637 20.3545 42.1079 20.3724C42.1521 20.3902 42.1923 20.4168 42.2259 20.4506C42.2595 20.4843 42.286 20.5245 42.3037 20.5688C42.3214 20.613 42.33 20.6604 42.3289 20.708C42.3289 21.0693 42.3653 21.5033 42.3653 21.5033L39.1875 25.0776Z" fill="#92E3A9" stroke="#263238" stroke-width="0.2" stroke-linecap="round" stroke-linejoin="round"/>
<path d="M42.4013 15.093C42.4013 15.093 42.9069 14.6954 43.1591 15.3089C43.4113 15.9224 42.6183 16.8995 42.4377 17.079L42.257 17.2596C42.257 17.2596 42.1434 16.2485 42.1434 15.8872C42.1434 15.5259 42.0764 15.0203 42.4013 15.093Z" fill="white" stroke="#263238" stroke-width="0.2" stroke-linecap="round" stroke-linejoin="round"/>
<path d="M35.5782 15.632C35.5782 15.632 35.0363 15.7036 35.0352 16.1739C35.034 16.6443 35.3237 17.293 35.685 17.51C35.9039 17.6407 36.1518 17.7153 36.4065 17.727C36.4065 17.727 36.5144 18.5939 37.0188 19.1722C37.5233 19.7505 38.1743 20.1845 38.4958 20.4015C38.8173 20.6185 39.5422 20.9434 39.9728 20.7639C40.4034 20.5844 41.0567 19.9345 41.0567 19.9345C41.2653 19.8288 41.4499 19.6812 41.5991 19.501C41.7482 19.3207 41.8587 19.1118 41.9235 18.887C42.1769 18.0917 42.4677 16.7215 42.4677 16.0353C42.4677 15.3491 42.2882 14.5186 42.253 14.3016C42.2178 14.0846 41.6395 13.2541 39.9421 13.2529C38.2447 13.2518 36.8746 13.7915 36.6189 14.1891C36.3633 14.5867 35.5782 15.632 35.5782 15.632Z" fill="white" stroke="#263238" stroke-width="0.2" stroke-linecap="round" stroke-linejoin="round"/>
<path d="M36.0176 15.3911L36.2266 16.2795C36.2266 16.2795 36.4357 16.3057 36.4357 16.1489C36.4357 15.9921 36.2244 15.0923 36.2244 15.0923L36.0176 15.3911Z" fill="#263238" stroke="#263238" stroke-width="0.2" stroke-linecap="round" stroke-linejoin="round"/>
<path d="M39.0849 17.2235C39.0849 17.2235 39.0485 17.5132 39.445 17.6211C39.8415 17.7291 40.4198 17.6211 40.4925 17.4053C40.5307 17.2491 40.5184 17.0848 40.4573 16.936" stroke="#263238" stroke-width="0.2" stroke-linecap="round" stroke-linejoin="round"/>
<path d="M38.6094 18.1618C38.9625 18.3172 39.3488 18.3823 39.7334 18.3512C40.118 18.32 40.4888 18.1936 40.8123 17.9834" stroke="#263238" stroke-width="0.2" stroke-linecap="round" stroke-linejoin="round"/>
<path d="M38.5555 16.2487C38.6854 16.2487 38.7907 16.0951 38.7907 15.9056C38.7907 15.7161 38.6854 15.5625 38.5555 15.5625C38.4256 15.5625 38.3203 15.7161 38.3203 15.9056C38.3203 16.0951 38.4256 16.2487 38.5555 16.2487Z" fill="#263238"/>
<path d="M41.228 15.9058C41.228 16.0955 41.1224 16.2466 40.9928 16.2466C40.8633 16.2466 40.7588 16.0932 40.7588 15.9058C40.7588 15.7183 40.8633 15.5649 40.9928 15.5649C41.1224 15.5649 41.228 15.716 41.228 15.9058Z" fill="#263238"/>
<path d="M37.7432 15.3821C37.9243 15.2242 38.1408 15.1123 38.3744 15.0557C38.6079 14.9992 38.8516 14.9997 39.0849 15.0571" stroke="#263238" stroke-width="0.2" stroke-linecap="round" stroke-linejoin="round"/>
<path d="M40.4482 14.9841C40.6641 14.9262 40.8904 14.919 41.1096 14.9629C41.3287 15.0069 41.5347 15.1008 41.7116 15.2374" stroke="#263238" stroke-width="0.2" stroke-linecap="round" stroke-linejoin="round"/>
<path d="M36.227 15.0932C36.227 15.0932 35.8657 15.634 35.5771 15.634C35.2885 15.634 34.3126 14.8762 34.2399 14.2264C34.1672 13.5765 35.6487 13.0709 36.1906 12.2756C36.7326 11.4803 38.1766 10.1454 39.332 10.3624C40.4875 10.5794 41.2464 11.8394 41.969 12.0598C42.6916 12.2802 43.8459 12.9982 43.7436 13.7208C43.6414 14.4434 43.346 14.7683 43.0619 14.8035C42.7779 14.8387 42.4121 14.6229 42.4121 14.6229C42.4121 14.6229 41.4009 13.4322 39.9569 13.2516C38.5129 13.0709 38.0062 13.4322 37.5006 13.973C37.1027 14.3757 36.6771 14.75 36.227 15.0932Z" fill="#263238" stroke="#263238" stroke-width="0.2" stroke-linecap="round" stroke-linejoin="round"/>
<path d="M36.2266 15.093C36.4086 15.1649 36.6052 15.192 36.7999 15.1723C36.9946 15.1525 37.1818 15.0864 37.3457 14.9794C37.9592 14.6181 38.3205 13.6797 39.8372 13.933C41.3539 14.1864 41.5346 14.6908 41.8959 14.7635C42.2571 14.8362 42.4014 14.7988 42.2571 14.2932C42.1129 13.7876 40.8483 12.8855 39.585 12.8162C38.3216 12.7469 36.2981 14.0091 36.2266 15.093Z" fill="#595959" stroke="#263238" stroke-width="0.2" stroke-linecap="round" stroke-linejoin="round"/>
<path d="M35.8783 29.5232C35.8783 29.5232 36.3168 28.219 36.4464 28.0633C36.5759 27.9077 37.4223 27.5861 37.4223 27.5861L37.9767 27.3407C37.9949 27.3327 38.0145 27.3287 38.0344 27.3291C38.0542 27.3295 38.0737 27.3343 38.0915 27.3431C38.1092 27.3519 38.1249 27.3645 38.1372 27.3799C38.1496 27.3954 38.1584 27.4135 38.1631 27.4328C38.2233 27.6804 38.2028 27.727 38.0608 27.8611C37.8927 28.019 37.2292 28.3269 37.2292 28.3269L38.4562 28.0599L40.4955 27.6395C40.517 27.6349 40.5391 27.635 40.5605 27.6397C40.582 27.6443 40.6021 27.6536 40.6197 27.6667C40.6372 27.6798 40.6518 27.6966 40.6623 27.7158C40.6728 27.735 40.6791 27.7563 40.6807 27.7781C40.6875 27.8634 38.9618 28.528 38.9618 28.528L38.9902 28.6973L40.3603 28.5723L40.9386 28.4825C40.9917 28.4743 41.046 28.4865 41.0905 28.5166C41.1349 28.5468 41.1663 28.5926 41.1784 28.645C41.1899 28.6931 41.1842 28.7437 41.1625 28.788C41.1407 28.8324 41.1041 28.8678 41.0591 28.8881C40.8523 28.9813 40.516 29.1335 40.4774 29.146C40.4387 29.1585 39.114 29.4119 39.114 29.4119L39.857 29.6232L41.117 29.6107C41.1523 29.6107 41.1862 29.6245 41.2114 29.6491C41.2367 29.6737 41.2513 29.7072 41.2522 29.7425C41.2529 29.7667 41.2469 29.7907 41.2349 29.8117C41.2229 29.8328 41.2053 29.8501 41.184 29.8618C41.0209 29.9581 40.8512 30.0427 40.6762 30.1152C40.4955 30.172 39.8809 30.2788 39.7241 30.3049C39.5673 30.331 39.0424 30.3606 39.0027 30.364C38.9629 30.3674 39.9116 30.5037 39.9547 30.5139C39.9979 30.5242 40.5228 30.5537 40.5171 30.6117C40.5114 30.6696 40.5285 30.7525 40.4319 30.7889C40.1474 30.8425 39.8575 30.8612 39.5685 30.8446C39.1833 30.8332 38.6709 30.8309 38.6709 30.8309C38.6709 30.8309 37.6302 30.9866 37.2064 31.0207C36.7827 31.0547 36.2089 31.1729 36.2089 31.1729L35.4238 31.4922L35.083 29.788L35.8783 29.5232Z" fill="white" stroke="#263238" stroke-width="0.2" stroke-linecap="round" stroke-linejoin="round"/>
<path d="M35.6052 29.5928L36.0313 31.5242C36.0313 31.5242 30.6778 35.5461 30.5869 35.5461C30.4961 35.5461 29.9348 35.6313 29.2236 35.0076C28.5124 34.3838 28.3454 33.5045 28.4578 32.9375C28.5703 32.3706 29.1395 31.6617 29.4224 31.406C29.7053 31.1504 35.6052 29.5928 35.6052 29.5928Z" fill="#92E3A9" stroke="#263238" stroke-width="0.2" stroke-linecap="round" stroke-linejoin="round"/>
<path d="M49.8951 33.8166C49.8951 33.8166 48.8726 34.6664 48.6453 35.0664C48.4181 35.4663 47.2559 40.2835 47.2559 40.2835L49.043 41.8422L49.978 40.5664C49.978 40.5664 52.1617 35.6617 52.2503 35.3209C52.3389 34.98 51.9094 33.7053 51.455 33.0815" fill="#92E3A9"/>
<path d="M49.8951 33.8166C49.8951 33.8166 48.8726 34.6664 48.6453 35.0664C48.4181 35.4663 47.2559 40.2835 47.2559 40.2835L49.043 41.8422L49.978 40.5664C49.978 40.5664 52.1617 35.6617 52.2503 35.3209C52.3389 34.98 51.9094 33.7053 51.455 33.0815" stroke="#263238" stroke-width="0.2" stroke-linecap="round" stroke-linejoin="round"/>
<path d="M15.7561 10.5215C15.7561 10.5215 12.7113 12.5904 12.6727 13.2937C12.6341 13.9969 12.5591 15.9477 12.1648 16.2999C11.7706 16.6521 11.0287 17.236 11.0287 17.6632C11.0287 18.0904 11.1844 18.6392 11.1844 18.8346C11.1844 19.03 10.7163 19.3811 10.6765 19.8105C10.6367 20.24 10.9117 21.0603 10.9117 21.2943C10.9117 21.5283 10.2868 21.9192 10.2084 22.2305C10.13 22.5418 10.322 22.7383 10.13 23.0508C9.93802 23.3632 9.54492 23.871 9.54492 23.871C9.54492 23.871 10.2471 24.7288 12.7068 25.1208C15.1665 25.5128 18.7192 25.6286 20.2052 25.3162C21.6913 25.0038 24.543 23.0917 24.543 23.0917C24.543 23.0917 24.2692 22.936 24.2692 22.5066C24.2692 22.0771 24.8157 21.4136 24.543 20.9057C24.2703 20.3979 23.6443 20.3593 23.6443 19.6174C23.6443 18.8755 23.9181 18.9925 23.6443 18.446C23.3705 17.8995 22.7854 17.8223 22.7081 17.3928C22.6309 16.9634 23.1376 16.4169 22.8217 15.7523C22.5059 15.0876 21.8458 14.6161 21.7288 14.3082C21.6118 14.0003 21.9628 13.1369 21.572 12.6302C21.1812 12.1235 18.4885 10.5601 17.5899 10.3659C16.6912 10.1716 15.7561 10.5215 15.7561 10.5215Z" fill="#263238" stroke="#263238" stroke-width="0.2" stroke-linecap="round" stroke-linejoin="round"/>
<path d="M20.8018 18.3621C20.511 20.2231 18.9999 21.5001 18.9999 21.5001V22.4885L17.874 22.3567L15.0473 22.0238V19.5244C14.8526 19.5195 14.6586 19.5002 14.4667 19.4664C14.118 19.4085 13.7101 18.77 14.0589 17.5486C14.4077 16.3273 15.0473 17.7758 15.0473 17.7758C15.0473 17.7758 15.2745 17.8338 16.0937 16.2648C16.9128 14.6958 17.3139 12.5508 17.3139 12.5508L20.3951 14.2368C20.3951 14.2368 21.0915 16.5022 20.8018 18.3621Z" fill="white" stroke="#263238" stroke-width="0.2" stroke-linecap="round" stroke-linejoin="round"/>
<path d="M19.4175 15.9385C19.4175 15.9385 19.2289 16.477 19.2289 16.6395C19.2289 16.8019 19.6595 18.5788 19.714 18.6845C19.7685 18.7902 18.6631 18.9538 18.6631 18.9538" stroke="#263238" stroke-width="0.2" stroke-linecap="round" stroke-linejoin="round"/>
<path d="M19.6873 19.3877C19.6873 19.3877 18.583 19.8183 17.9365 19.1719" stroke="#263238" stroke-width="0.2" stroke-linecap="round" stroke-linejoin="round"/>
<path d="M18.2592 15.5047C18.2592 15.5047 17.3162 15.3423 16.8311 15.9353" stroke="#263238" stroke-width="0.2" stroke-linecap="round" stroke-linejoin="round"/>
<path d="M19.6572 15.5615C19.6572 15.5615 20.331 15.3729 20.6002 15.8046" stroke="#263238" stroke-width="0.2" stroke-linecap="round" stroke-linejoin="round"/>
<path d="M17.8823 16.7601C17.8823 16.9873 17.7755 17.1725 17.6437 17.1725C17.5119 17.1725 17.4062 16.9873 17.4062 16.7601C17.4062 16.5328 17.513 16.3477 17.6437 16.3477C17.7744 16.3477 17.8823 16.5328 17.8823 16.7601Z" fill="#263238"/>
<path d="M20.3706 16.7601C20.3706 16.9873 20.2638 17.1725 20.1331 17.1725C20.0025 17.1725 19.8945 16.9873 19.8945 16.7601C19.8945 16.5328 20.0013 16.3477 20.1331 16.3477C20.2649 16.3477 20.3706 16.5328 20.3706 16.7601Z" fill="#263238"/>
<path d="M18.9998 21.4998V22.4883L17.8739 22.3565C17.0377 21.6498 16.2629 20.3796 16.2061 20.2842C17.1581 21.7055 18.9998 21.4998 18.9998 21.4998Z" fill="#263238" stroke="#263238" stroke-width="0.2" stroke-linecap="round" stroke-linejoin="round"/>
<path d="M22.2628 24.6416C22.2628 24.6416 25.4962 36.3267 25.7314 37.4981C25.9666 38.6694 26.5505 43.8808 26.5505 43.8808L26.7266 45.4032H24.7952L25.2054 43.1776L22.9217 35.5655C22.9217 35.5655 22.1015 29.9439 22.0424 28.3624C21.9833 26.7809 22.2628 24.6416 22.2628 24.6416Z" fill="white" stroke="#263238" stroke-width="0.2" stroke-linecap="round" stroke-linejoin="round"/>
<path d="M22.2621 24.6416C22.2621 24.6416 21.9826 26.7809 22.0348 28.3624C22.0871 29.9439 22.9142 35.5655 22.9142 35.5655L23.8186 38.5683L25.8522 38.2468C25.8068 37.9321 25.7648 37.673 25.7307 37.5026C25.4955 36.3267 22.2621 24.6416 22.2621 24.6416Z" fill="#92E3A9" stroke="#263238" stroke-width="0.2" stroke-linecap="round" stroke-linejoin="round"/>
<path d="M14.9561 24.4391L17.7668 27.4839L19.9334 24.38L18.7621 23.5609L15.6002 23.3848L14.9561 24.4391Z" fill="white" stroke="#263238" stroke-width="0.2" stroke-linecap="round" stroke-linejoin="round"/>
<path d="M18.586 24.088L20.4607 24.6141L23.2124 41.0107L23.6816 45.4609H11.208L12.6134 25.3173L15.2095 23.7949L18.586 24.088Z" fill="#C9C9C9" stroke="#263238" stroke-width="0.2" stroke-linecap="round" stroke-linejoin="round"/>
<path d="M16.0107 31.4663L20.4019 31.6413" stroke="#263238" stroke-width="0.2" stroke-linecap="round" stroke-linejoin="round"/>
<path d="M18.2943 31.5239L18.1182 33.9257" stroke="#263238" stroke-width="0.2" stroke-linecap="round" stroke-linejoin="round"/>
<path d="M18.762 31.7002L18.7041 36.0925" stroke="#263238" stroke-width="0.2" stroke-linecap="round" stroke-linejoin="round"/>
<path d="M19.2305 32.9297L19.3486 35.1554" stroke="#263238" stroke-width="0.2" stroke-linecap="round" stroke-linejoin="round"/>
<path d="M14.1551 23.6382C14.1551 23.6382 11.3057 25.1606 11.1886 25.6684C11.0716 26.1763 9.68555 32.5784 9.68555 32.6954C9.68555 32.8124 11.0716 36.4446 11.0716 36.4446L10.7842 42.1537C10.7842 42.1537 12.1896 42.4661 13.0485 42.4275C13.9074 42.3889 15.1958 42.3139 15.1958 42.3139L15.4048 23.6427L14.1551 23.6382Z" fill="#92E3A9" stroke="#263238" stroke-width="0.2" stroke-linecap="round" stroke-linejoin="round"/>
<path d="M12.3789 34.569L12.9061 29.9438" stroke="#263238" stroke-width="0.2" stroke-linecap="round" stroke-linejoin="round"/>
<path d="M12.3986 33.8669L9.39243 26.4116C9.39243 26.4116 8.96297 25.2403 8.61191 24.9278C8.26084 24.6154 7.87001 24.3814 7.63597 24.1473C7.40193 23.9133 7.3633 23.3668 7.20651 23.9519C7.04973 24.537 7.67573 24.9676 7.67573 24.9676L8.06884 25.63L5.56935 25.1619C5.56935 25.1619 4.28098 24.5382 4.16395 24.8108C4.04693 25.0835 4.71043 25.3187 5.25691 25.7481C5.80339 26.1776 6.11583 26.5673 7.01337 26.8843C7.59723 27.1016 8.13889 27.4188 8.61418 27.8216C8.61418 27.8216 8.80959 35.7461 9.27768 36.0983C9.74576 36.4505 11.3477 37.3855 11.9328 36.605C12.5179 35.8245 12.5157 35.1167 12.3986 33.8669Z" fill="white" stroke="#263238" stroke-width="0.2" stroke-linecap="round" stroke-linejoin="round"/>
<path d="M12.3985 33.8667L11.9134 32.6602L8.88672 33.6827C8.9867 34.9597 9.11395 35.9708 9.27528 36.0924C9.7445 36.4435 11.3453 37.3796 11.9304 36.5991C12.5155 35.8186 12.5155 35.1165 12.3985 33.8667Z" fill="#92E3A9" stroke="#263238" stroke-width="0.2" stroke-linecap="round" stroke-linejoin="round"/>
<path d="M6.59232 26.5248C6.59232 26.5248 5.56071 25.8988 5.37325 25.5864C5.18579 25.274 4.52911 24.0549 4.74838 24.0242C4.96765 23.9935 5.54367 24.8854 5.56071 25.024C5.57776 25.1626 6.2174 25.7739 6.2174 25.7739" fill="white"/>
<path d="M6.59232 26.5248C6.59232 26.5248 5.56071 25.8988 5.37325 25.5864C5.18579 25.274 4.52911 24.0549 4.74838 24.0242C4.96765 23.9935 5.54367 24.8854 5.56071 25.024C5.57776 25.1626 6.2174 25.7739 6.2174 25.7739" stroke="#263238" stroke-width="0.2" stroke-linecap="round" stroke-linejoin="round"/>
<path d="M6.68058 26.7726C6.39 26.5671 6.16256 26.2846 6.0239 25.9568C5.77395 25.3945 5.49219 24.6128 5.49219 24.1754C5.49219 23.738 5.74214 23.8948 5.83303 24.2072C5.92392 24.5196 6.24203 25.2752 6.36474 25.4285C6.48744 25.5819 6.9328 26.2102 6.9328 26.2102" fill="white"/>
<path d="M6.68058 26.7726C6.39 26.5671 6.16256 26.2846 6.0239 25.9568C5.77395 25.3945 5.49219 24.6128 5.49219 24.1754C5.49219 23.738 5.74214 23.8948 5.83303 24.2072C5.92392 24.5196 6.24203 25.2752 6.36474 25.4285C6.48744 25.5819 6.9328 26.2102 6.9328 26.2102" stroke="#263238" stroke-width="0.2" stroke-linecap="round" stroke-linejoin="round"/>
<path d="M9.0918 27.085C9.05999 26.9907 8.65439 26.3352 8.52942 26.3034C8.40445 26.2716 7.5603 26.4909 7.5603 26.4909L6.99223 26.0534C6.99223 26.0534 6.96042 25.1161 6.96042 24.7719C6.96042 24.4276 6.4912 25.2718 6.46053 25.8342C6.42985 26.3966 6.86726 26.9908 6.86726 26.9908C6.86726 26.9908 7.36716 27.0851 7.46032 27.1157C7.55348 27.1464 8.61122 27.8156 8.61122 27.8156" fill="white"/>
<path d="M9.0918 27.085C9.05999 26.9907 8.65439 26.3352 8.52942 26.3034C8.40445 26.2716 7.5603 26.4909 7.5603 26.4909L6.99223 26.0534C6.99223 26.0534 6.96042 25.1161 6.96042 24.7719C6.96042 24.4276 6.4912 25.2718 6.46053 25.8342C6.42985 26.3966 6.86726 26.9908 6.86726 26.9908C6.86726 26.9908 7.36716 27.0851 7.46032 27.1157C7.55348 27.1464 8.61122 27.8156 8.61122 27.8156" stroke="#263238" stroke-width="0.2" stroke-linecap="round" stroke-linejoin="round"/>
<path d="M14.3117 23.6382L13.9209 35.0767L15.6001 35.0381L15.2093 23.795L14.3117 23.6382Z" fill="#858585" stroke="#263238" stroke-width="0.2" stroke-linecap="round" stroke-linejoin="round"/>
<path d="M14.3115 23.6382L15.092 35.9754L17.5131 35.9357L15.9123 23.7563L14.3115 23.6382Z" fill="#858585" stroke="#263238" stroke-width="0.2" stroke-linecap="round" stroke-linejoin="round"/>
<path d="M19.4062 24.2052L19.421 24.4256L20.6355 42.0061L23.861 41.7959L22.9817 33.6328C22.9817 33.6328 22.4409 24.7585 22.2659 24.6415C22.0909 24.5245 19.4062 23.9121 19.4062 23.9121V24.2052Z" fill="#92E3A9" stroke="#263238" stroke-width="0.2" stroke-linecap="round" stroke-linejoin="round"/>
<path d="M14.7028 21.374C14.7028 21.374 18.6792 22.1557 19.036 22.1557C19.3927 22.1557 19.6211 22.3897 19.5427 22.6624C19.4771 22.8779 19.4389 23.1008 19.4291 23.3259C19.4291 23.4827 19.8585 24.1076 19.5075 24.42C19.1564 24.7324 15.4867 24.1462 14.9789 24.1076C14.471 24.0689 14.0029 24.0292 14.0029 23.7554C14.0029 23.4815 14.588 23.0146 14.588 22.8192C14.588 22.6238 14.1165 22.0387 14.7028 21.374Z" fill="#858585" stroke="#263238" stroke-width="0.2" stroke-linecap="round" stroke-linejoin="round"/>
<path d="M1.14062 45.4609H78.1055" stroke="#263238" stroke-linecap="round" stroke-linejoin="round"/>
</svg>
