<svg width="22" height="22" viewBox="0 0 22 22" fill="none" xmlns="http://www.w3.org/2000/svg">
<path d="M7.33301 1.8335V4.5835" stroke="black" stroke-opacity="0.8" stroke-width="1.5" stroke-miterlimit="10" stroke-linecap="round" stroke-linejoin="round"/>
<path d="M14.667 1.8335V4.5835" stroke="black" stroke-opacity="0.8" stroke-width="1.5" stroke-miterlimit="10" stroke-linecap="round" stroke-linejoin="round"/>
<path d="M3.20801 8.33252H18.7913" stroke="black" stroke-opacity="0.8" stroke-width="1.5" stroke-miterlimit="10" stroke-linecap="round" stroke-linejoin="round"/>
<path d="M17.6088 14.4559L14.3638 17.7009C14.2355 17.8293 14.1163 18.0676 14.0888 18.2418L13.9146 19.4793C13.8505 19.9284 14.1621 20.2401 14.6113 20.1759L15.8488 20.0018C16.023 19.9743 16.2705 19.8551 16.3896 19.7268L19.6346 16.4818C20.1938 15.9226 20.4596 15.2718 19.6346 14.4468C18.8188 13.6309 18.168 13.8968 17.6088 14.4559Z" stroke="black" stroke-opacity="0.8" stroke-width="1.5" stroke-miterlimit="10" stroke-linecap="round" stroke-linejoin="round"/>
<path d="M17.1416 14.9233C17.4166 15.9133 18.1866 16.6833 19.1766 16.9583" stroke="black" stroke-opacity="0.8" stroke-width="1.5" stroke-miterlimit="10" stroke-linecap="round" stroke-linejoin="round"/>
<path d="M11 20.1668H7.33333C4.125 20.1668 2.75 18.3335 2.75 15.5835V7.79183C2.75 5.04183 4.125 3.2085 7.33333 3.2085H14.6667C17.875 3.2085 19.25 5.04183 19.25 7.79183V11.0002" stroke="black" stroke-opacity="0.8" stroke-width="1.5" stroke-miterlimit="10" stroke-linecap="round" stroke-linejoin="round"/>
<path d="M10.9963 12.5584H11.0045" stroke="black" stroke-opacity="0.8" stroke-width="2" stroke-linecap="round" stroke-linejoin="round"/>
<path d="M7.60271 12.5584H7.61095" stroke="black" stroke-opacity="0.8" stroke-width="2" stroke-linecap="round" stroke-linejoin="round"/>
<path d="M7.60271 15.3084H7.61095" stroke="black" stroke-opacity="0.8" stroke-width="2" stroke-linecap="round" stroke-linejoin="round"/>
</svg>
