<svg width="18" height="18" viewBox="0 0 18 18" fill="none" xmlns="http://www.w3.org/2000/svg">
<path d="M15.375 17.0625H2.625C2.3175 17.0625 2.0625 16.8075 2.0625 16.5C2.0625 16.1925 2.3175 15.9375 2.625 15.9375H15.375C15.6825 15.9375 15.9375 16.1925 15.9375 16.5C15.9375 16.8075 15.6825 17.0625 15.375 17.0625Z" fill="#292D32"/>
<path d="M14.2501 13.6876C14.1076 13.6876 13.9651 13.6351 13.8526 13.5226L3.35258 3.02258C3.13508 2.80508 3.13508 2.44508 3.35258 2.22758C3.57008 2.01008 3.93008 2.01008 4.14758 2.22758L14.6476 12.7276C14.8651 12.9451 14.8651 13.3051 14.6476 13.5226C14.5351 13.6351 14.3926 13.6876 14.2501 13.6876Z" fill="#292D32"/>
<path d="M3.75 10.89C3.4425 10.89 3.1875 10.635 3.1875 10.3275V2.625C3.1875 2.3175 3.4425 2.0625 3.75 2.0625H11.4525C11.76 2.0625 12.015 2.3175 12.015 2.625C12.015 2.9325 11.76 3.1875 11.4525 3.1875H4.3125V10.3275C4.3125 10.635 4.0575 10.89 3.75 10.89Z" fill="#292D32"/>
</svg>
